<svg xmlns="http://www.w3.org/2000/svg" xmlns:xlink="http://www.w3.org/1999/xlink" preserveAspectRatio="xMidYMid" width="16.56" height="17" viewBox="0 0 16.56 17"><defs><style>.cls-1 {fill: #d8dee6; fill-rule: evenodd;}</style></defs><path d="M9.012,0.477 L10.936,4.733 C11.050,4.989 11.277,5.165 11.540,5.203 L15.906,5.851 C16.561,5.948 16.823,6.813 16.346,7.305 L13.167,10.582 C12.977,10.780 12.890,11.065 12.937,11.344 L13.714,16.000 C13.829,16.699 13.144,17.234 12.560,16.899 L8.674,14.668 C8.440,14.534 8.161,14.534 7.927,14.668 L4.042,16.899 C3.459,17.234 2.771,16.699 2.889,16.000 L3.664,11.344 C3.712,11.065 3.625,10.780 3.434,10.582 L0.257,7.305 C-0.220,6.813 0.041,5.948 0.696,5.851 L5.061,5.203 C5.325,5.165 5.551,4.989 5.666,4.733 L7.589,0.477 C7.877,-0.161 8.726,-0.161 9.012,0.477 Z" class="cls-1"/></svg>