<svg xmlns="http://www.w3.org/2000/svg" viewBox="0 0 10.66 16.57"><path d="M733.17,427.65a2.37,2.37,0,1,1,2.37-2.37A2.37,2.37,0,0,1,733.17,427.65Zm0-3.55a1.18,1.18,0,1,0,1.18,1.18A1.19,1.19,0,0,0,733.17,424.09Z" transform="translate(-727.84 -419.95)" style="fill:#9fa5ad"/><path d="M733.17,436.52a0.59,0.59,0,0,1-.53-0.33l-4.25-8.57a5.27,5.27,0,0,1-.55-2.35,5.33,5.33,0,0,1,10.66,0,5.27,5.27,0,0,1-.55,2.35l-4.25,8.57A0.59,0.59,0,0,1,733.17,436.52Zm0-15.39a4.15,4.15,0,0,0-4.14,4.14,4.11,4.11,0,0,0,.42,1.83l3.72,7.5,3.72-7.5A4.15,4.15,0,0,0,733.17,421.13Z" transform="translate(-727.84 -419.95)" style="fill:#9fa5ad"/></svg>