<svg xmlns="http://www.w3.org/2000/svg" viewBox="0 0 30.91 33.53"><path d="M661.67,421.76a5,5,0,0,1,2.5.67l8.45,4.88a5,5,0,0,1,2.5,4.34v9.75a5,5,0,0,1-2.5,4.34l-8.45,4.88a5,5,0,0,1-5,0l-8.45-4.88a5,5,0,0,1-2.5-4.34v-9.75a5,5,0,0,1,2.5-4.34l8.45-4.88a5,5,0,0,1,2.5-.67m0-2a7,7,0,0,0-3.5.94l-8.45,4.88a7,7,0,0,0-3.5,6.07v9.75a7,7,0,0,0,3.5,6.07l8.45,4.88a7,7,0,0,0,7,0l8.45-4.88a7,7,0,0,0,3.5-6.07v-9.75a7,7,0,0,0-3.5-6.07l-8.45-4.88a7,7,0,0,0-3.5-.94h0Z" transform="translate(-646.22 -419.76)" fill="#9fa5ad"/></svg>