<?xml version="1.0" encoding="utf-8"?>
<!-- Generator: Adobe Illustrator 19.2.0, SVG Export Plug-In . SVG Version: 6.00 Build 0)  -->
<svg version="1.1" xmlns="http://www.w3.org/2000/svg" xmlns:xlink="http://www.w3.org/1999/xlink" x="0px" y="0px"
	 viewBox="0 0 200 200" style="enable-background:new 0 0 200 200;" xml:space="preserve">
<style type="text/css">
	.st0{display:none;}
	.st1{display:inline;opacity:0.22;fill:#001E33;}
	.st2{fill:#1071FF;}
</style>
<g id="guide_boundary" class="st0">
	<rect x="25" y="25.5" class="st1" width="150" height="150"/>
</g>
<g id="Layer_2">
	<g>
		<g>
			<g>
				<g>
					<path class="st2" d="M23.5,156.9c-1.1,0-2.2-0.6-2.8-1.7c-0.9-1.6-0.3-3.5,1.3-4.4c21.9-12,42.4-16.9,61-14.4
						c10.3,1.4,15,2.9,21.4,5.1c2.7,0.9,5.7,1.9,9.6,3.1c25,7.4,38.6,5.8,55.9-6.8l5.2-4c1.4-1.1,3.4-0.8,4.5,0.6
						c1.1,1.4,0.8,3.4-0.6,4.5l-5.3,4c-19,13.9-34.5,15.9-61.5,7.8c-4-1.2-7.1-2.2-9.8-3.1c-6.3-2.1-10.5-3.5-20.2-4.8
						c-17.2-2.3-36.4,2.3-57.1,13.7C24.5,156.7,24,156.9,23.5,156.9z"/>
				</g>
			</g>
			<path class="st2" d="M111.4,109.9l16.5,32.5l-22-29.1c-1.1-1.4-0.8-3.4,0.6-4.5c1.4-1.1,3.4-0.8,4.5,0.6
				C111.2,109.6,111.3,109.7,111.4,109.9z"/>
			<path class="st2" d="M22.9,156c-0.6,0-1.3-0.2-1.8-0.6c-1.5-1-1.8-3-0.8-4.5l60.9-89.6l30.3,48.4c0.9,1.5,0.5,3.5-1,4.4
				c-1.5,0.9-3.5,0.5-4.4-1l-25-40.1l-55.4,81.4C24.9,155.5,23.9,156,22.9,156z"/>
			<path class="st2" d="M167.9,145c-1,0-2-0.5-2.6-1.4L129.1,92l-17.9,21.6c-1.1,1.4-3.2,1.6-4.5,0.4c-1.4-1.1-1.6-3.2-0.4-4.5
				l23.2-28.1l41.1,58.5c1,1.5,0.7,3.5-0.8,4.5C169.2,144.8,168.6,145,167.9,145z"/>
			<path class="st2" d="M59.5,94.2L75.3,89l1.2-0.4l0.7,0.6l7.9,7.2L84,96.3l11.6-5.6L85,98.1l-0.5,0.3L83.9,98l-9-5.8l1.9,0.2
				L62,100.2c-1.6,0.8-3.5,0.2-4.3-1.4c-0.8-1.6-0.2-3.5,1.4-4.3C59.2,94.4,59.3,94.3,59.5,94.2z"/>
			<path class="st2" d="M115.4,103.8l10.3,5.7l-2.1,0.2l7.6-4.2l0.8-0.4l0.6,0.3l15.4,8.1l-16.6-5.4l1.4-0.1l-6.7,5.4l-0.8,0.7
				l-1.3-0.5l-11.1-3.9c-1.7-0.6-2.6-2.4-2-4.1c0.6-1.7,2.4-2.6,4.1-2C115.1,103.7,115.3,103.8,115.4,103.8z"/>
		</g>
		<path class="st2" d="M126.2,74.6c-0.3,0-0.5-0.2-0.5-0.5V59.6c0-0.3,0.2-0.5,0.5-0.5s0.5,0.2,0.5,0.5v14.5
			C126.7,74.4,126.5,74.6,126.2,74.6z"/>
		<path class="st2" d="M119.9,71c-0.2,0-0.4-0.1-0.5-0.3c-0.1-0.3-0.1-0.6,0.2-0.7l12.5-7.2c0.3-0.1,0.6-0.1,0.7,0.2
			c0.1,0.3,0.1,0.6-0.2,0.7l-12.5,7.2C120.1,71,120,71,119.9,71z"/>
		<path class="st2" d="M132.4,71c-0.1,0-0.2,0-0.3-0.1l-12.5-7.2c-0.3-0.1-0.3-0.5-0.2-0.7c0.1-0.3,0.5-0.3,0.7-0.2l12.5,7.2
			c0.3,0.1,0.3,0.5,0.2,0.7C132.8,70.9,132.6,71,132.4,71z"/>
		<path class="st2" d="M122.2,72.7c0,0-0.1,0-0.1,0c-0.3-0.1-0.5-0.4-0.4-0.7l0.8-3.1l-3.1-0.8c-0.3-0.1-0.5-0.4-0.4-0.7
			c0.1-0.3,0.4-0.5,0.7-0.4l3.6,1c0.3,0.1,0.5,0.4,0.4,0.7l-1,3.6C122.6,72.6,122.4,72.7,122.2,72.7z"/>
		<path class="st2" d="M128.8,73.5c-0.1,0-0.3-0.1-0.4-0.2l-2.3-2.3l-2.3,2.3c-0.2,0.2-0.5,0.2-0.8,0c-0.2-0.2-0.2-0.5,0-0.8
			l2.6-2.7c0.2-0.2,0.6-0.2,0.8,0l2.6,2.7c0.2,0.2,0.2,0.5,0,0.8C129.1,73.5,129,73.5,128.8,73.5z"/>
		<path class="st2" d="M130.2,72.7c-0.2,0-0.5-0.2-0.5-0.4l-1-3.6c-0.1-0.3,0.1-0.6,0.4-0.7l3.6-1c0.3-0.1,0.6,0.1,0.7,0.4
			c0.1,0.3-0.1,0.6-0.4,0.7l-3.1,0.8l0.8,3.1c0.1,0.3-0.1,0.6-0.4,0.7C130.3,72.7,130.2,72.7,130.2,72.7z"/>
		<path class="st2" d="M132.8,66.6c0,0-0.1,0-0.1,0l-3.6-1c-0.3-0.1-0.5-0.4-0.4-0.7l1-3.6c0.1-0.3,0.4-0.5,0.7-0.4
			c0.3,0.1,0.5,0.4,0.4,0.7l-0.8,3.1l3.1,0.8c0.3,0.1,0.5,0.4,0.4,0.7C133.3,66.4,133.1,66.6,132.8,66.6z"/>
		<path class="st2" d="M126.2,63.8c-0.1,0-0.3-0.1-0.4-0.2l-2.6-2.6c-0.2-0.2-0.2-0.5,0-0.8c0.2-0.2,0.5-0.2,0.8,0l2.3,2.3l2.3-2.3
			c0.2-0.2,0.5-0.2,0.8,0c0.2,0.2,0.2,0.5,0,0.8l-2.6,2.6C126.5,63.8,126.3,63.8,126.2,63.8z"/>
		<path class="st2" d="M119.5,66.6c-0.2,0-0.5-0.2-0.5-0.4c-0.1-0.3,0.1-0.6,0.4-0.7l3.1-0.8l-0.8-3.1c-0.1-0.3,0.1-0.6,0.4-0.7
			c0.3-0.1,0.6,0.1,0.7,0.4l1,3.6c0.1,0.3-0.1,0.6-0.4,0.7l-3.6,1C119.6,66.6,119.6,66.6,119.5,66.6z"/>
		<path class="st2" d="M99.3,66.3c-0.4,0-0.8-0.4-0.8-0.8V46.7c0-0.4,0.4-0.8,0.8-0.8c0.4,0,0.8,0.4,0.8,0.8v18.7
			C100.1,65.9,99.8,66.3,99.3,66.3z"/>
		<path class="st2" d="M91.2,61.6c-0.3,0-0.5-0.1-0.7-0.4c-0.2-0.4-0.1-0.9,0.3-1.1l16.2-9.4c0.4-0.2,0.9-0.1,1.1,0.3
			c0.2,0.4,0.1,0.9-0.3,1.1l-16.2,9.4C91.5,61.5,91.4,61.6,91.2,61.6z"/>
		<path class="st2" d="M107.4,61.6c-0.1,0-0.3,0-0.4-0.1l-16.2-9.4c-0.4-0.2-0.5-0.7-0.3-1.1c0.2-0.4,0.7-0.5,1.1-0.3l16.2,9.4
			c0.4,0.2,0.5,0.7,0.3,1.1C108,61.4,107.7,61.6,107.4,61.6z"/>
		<path class="st2" d="M94.2,63.9c-0.1,0-0.1,0-0.2,0c-0.4-0.1-0.7-0.6-0.6-1l1-3.9l-3.9-1.1c-0.4-0.1-0.7-0.6-0.6-1
			c0.1-0.4,0.6-0.7,1-0.6l4.7,1.3c0.4,0.1,0.7,0.6,0.6,1l-1.2,4.7C94.8,63.6,94.5,63.9,94.2,63.9z"/>
		<path class="st2" d="M102.8,64.9c-0.2,0-0.4-0.1-0.6-0.2l-2.9-2.9l-2.9,2.9c-0.3,0.3-0.8,0.3-1.1,0c-0.3-0.3-0.3-0.8,0-1.1
			l3.4-3.5c0.3-0.3,0.8-0.3,1.1,0l3.4,3.5c0.3,0.3,0.3,0.8,0,1.1C103.2,64.8,103,64.9,102.8,64.9z"/>
		<path class="st2" d="M104.5,63.9c-0.4,0-0.7-0.2-0.8-0.6l-1.2-4.7c-0.1-0.4,0.1-0.9,0.6-1l4.7-1.3c0.4-0.1,0.9,0.1,1,0.6
			c0.1,0.4-0.1,0.9-0.6,1l-3.9,1.1l1,3.9c0.1,0.4-0.1,0.9-0.6,1C104.7,63.8,104.6,63.9,104.5,63.9z"/>
		<path class="st2" d="M108,55.9c-0.1,0-0.1,0-0.2,0l-4.7-1.3c-0.4-0.1-0.7-0.6-0.6-1l1.2-4.7c0.1-0.4,0.5-0.7,1-0.6
			c0.4,0.1,0.7,0.6,0.6,1l-1,3.9l3.9,1.1c0.4,0.1,0.7,0.6,0.6,1C108.7,55.6,108.3,55.9,108,55.9z"/>
		<path class="st2" d="M99.3,52.3c-0.2,0-0.4-0.1-0.6-0.2l-3.4-3.4c-0.3-0.3-0.3-0.8,0-1.1c0.3-0.3,0.8-0.3,1.1,0l2.9,2.9l2.9-2.9
			c0.3-0.3,0.8-0.3,1.1,0s0.3,0.8,0,1.1l-3.4,3.4C99.8,52.2,99.6,52.3,99.3,52.3z"/>
		<path class="st2" d="M90.7,55.9c-0.4,0-0.7-0.2-0.8-0.6c-0.1-0.4,0.1-0.9,0.6-1l3.9-1l-1-3.9c-0.1-0.4,0.1-0.9,0.6-1
			c0.4-0.1,0.9,0.1,1,0.6l1.2,4.7c0.1,0.4-0.1,0.9-0.6,1l-4.7,1.3C90.9,55.9,90.8,55.9,90.7,55.9z"/>
		<path class="st2" d="M110.1,89.3c-0.3,0-0.5-0.2-0.5-0.5V77.1c0-0.3,0.2-0.5,0.5-0.5s0.5,0.2,0.5,0.5v11.7
			C110.6,89.1,110.4,89.3,110.1,89.3z"/>
		<path class="st2" d="M105,86.4c-0.2,0-0.4-0.1-0.5-0.3c-0.1-0.3-0.1-0.6,0.2-0.7l10.1-5.9c0.3-0.1,0.6-0.1,0.7,0.2
			c0.1,0.3,0.1,0.6-0.2,0.7l-10.1,5.9C105.2,86.4,105.1,86.4,105,86.4z"/>
		<path class="st2" d="M115.2,86.4c-0.1,0-0.2,0-0.3-0.1l-10.1-5.9c-0.3-0.1-0.3-0.5-0.2-0.7c0.1-0.3,0.5-0.3,0.7-0.2l10.1,5.9
			c0.3,0.1,0.3,0.5,0.2,0.7C115.5,86.3,115.3,86.4,115.2,86.4z"/>
		<path class="st2" d="M106.8,87.8c0,0-0.1,0-0.1,0c-0.3-0.1-0.5-0.4-0.4-0.7l0.6-2.4l-2.4-0.7c-0.3-0.1-0.5-0.4-0.4-0.7
			c0.1-0.3,0.4-0.5,0.7-0.4l2.9,0.8c0.3,0.1,0.5,0.4,0.4,0.7l-0.8,2.9C107.3,87.7,107.1,87.8,106.8,87.8z"/>
		<path class="st2" d="M112.2,88.5c-0.1,0-0.3-0.1-0.4-0.2l-1.8-1.8l-1.8,1.8c-0.2,0.2-0.5,0.2-0.8,0c-0.2-0.2-0.2-0.5,0-0.8
			l2.1-2.2c0.2-0.2,0.6-0.2,0.8,0l2.1,2.2c0.2,0.2,0.2,0.5,0,0.8C112.5,88.4,112.4,88.5,112.2,88.5z"/>
		<path class="st2" d="M113.3,87.8c-0.2,0-0.5-0.2-0.5-0.4l-0.8-2.9c-0.1-0.3,0.1-0.6,0.4-0.7l2.9-0.8c0.3-0.1,0.6,0.1,0.7,0.4
			c0.1,0.3-0.1,0.6-0.4,0.7l-2.4,0.7l0.6,2.4c0.1,0.3-0.1,0.6-0.4,0.7C113.4,87.8,113.4,87.8,113.3,87.8z"/>
		<path class="st2" d="M115.5,82.8c0,0-0.1,0-0.1,0l-2.9-0.8c-0.3-0.1-0.5-0.4-0.4-0.7l0.8-2.9c0.1-0.3,0.4-0.5,0.7-0.4
			c0.3,0.1,0.5,0.4,0.4,0.7l-0.6,2.4l2.4,0.7c0.3,0.1,0.5,0.4,0.4,0.7C115.9,82.7,115.7,82.8,115.5,82.8z"/>
		<path class="st2" d="M110.1,80.6c-0.1,0-0.3-0.1-0.4-0.2l-2.1-2.1c-0.2-0.2-0.2-0.5,0-0.8c0.2-0.2,0.5-0.2,0.8,0l1.8,1.8l1.8-1.8
			c0.2-0.2,0.5-0.2,0.8,0c0.2,0.2,0.2,0.5,0,0.8l-2.1,2.1C110.4,80.6,110.2,80.6,110.1,80.6z"/>
		<path class="st2" d="M104.7,82.8c-0.2,0-0.5-0.2-0.5-0.4c-0.1-0.3,0.1-0.6,0.4-0.7l2.4-0.6l-0.6-2.4c-0.1-0.3,0.1-0.6,0.4-0.7
			c0.3-0.1,0.6,0.1,0.7,0.4l0.8,2.9c0.1,0.3-0.1,0.6-0.4,0.7l-2.9,0.8C104.8,82.8,104.7,82.8,104.7,82.8z"/>
	</g>
</g>
</svg>
