<?xml version="1.0" encoding="utf-8"?>
<!-- Generator: Adobe Illustrator 19.2.0, SVG Export Plug-In . SVG Version: 6.00 Build 0)  -->
<svg version="1.1" xmlns="http://www.w3.org/2000/svg" xmlns:xlink="http://www.w3.org/1999/xlink" x="0px" y="0px"
	 viewBox="0 0 200 200" style="enable-background:new 0 0 200 200;" xml:space="preserve">
<style type="text/css">
	.st0{display:none;}
	.st1{display:inline;opacity:0.22;fill:#001E33;}
	.st2{fill:#1071FF;}
</style>
<g id="guide_boundary" class="st0">
	<rect x="25" y="25.5" class="st1" width="150" height="150"/>
</g>
<g id="Layer_2">
	<g>
		<g>
			<path class="st2" d="M106.6,126.6c-9.8,0-18.8-3.2-25.3-9.7c-16.2-16.2-11.6-47.1,10.1-68.8c10.4-10.4,23.2-17.3,36-19.3
				c13.2-2.1,24.8,1.2,32.8,9.2c13,13,13.1,35.5,0.2,55.9c-0.9,1.4-2.7,1.8-4.1,0.9s-1.8-2.7-0.9-4.1c11.3-18,11.6-37.5,0.6-48.5
				c-6.6-6.6-16.4-9.2-27.6-7.5c-11.6,1.8-23.2,8.1-32.7,17.6c-19.4,19.4-24,46.5-10.1,60.3c12.4,12.4,36.1,10.1,55.1-5.4
				c1.3-1,3.2-0.9,4.2,0.4c1,1.3,0.9,3.2-0.4,4.2C132.5,121.6,118.9,126.6,106.6,126.6z"/>
			<path class="st2" d="M61.5,139.7c-0.8,0-1.5-0.3-2.1-0.9c-1.1-1.1-1.2-3-0.1-4.2c0.1-0.1,0.2-0.2,0.5-0.5
				c2.1-2.2,13.5-15.5,11.7-40.6c-0.1-1.7,1.1-3.1,2.8-3.2c1.7-0.1,3.1,1.1,3.2,2.8c1,14.5-2,25.4-5.4,32.9c7.5-3.5,18.4-6.4,33-5.4
				c1.7,0.1,2.9,1.5,2.8,3.2c-0.1,1.7-1.6,2.9-3.2,2.8c-25-1.7-38.1,9.4-40.5,11.7c-0.3,0.3-0.5,0.5-0.6,0.6
				C63,139.4,62.2,139.7,61.5,139.7z"/>
			<path class="st2" d="M37.5,171.4c-1.8,0-3.6-0.7-5-2l-3.8-3.8c0,0,0,0,0,0c-1.3-1.3-2-3.1-2-5s0.7-3.6,2-5L50.5,134
				c1.3-1.3,3.1-2,5-2s3.6,0.7,5,2l3.8,3.8c1.3,1.3,2,3.1,2,5c0,1.9-0.7,3.6-2,5l-21.7,21.7C41.1,170.8,39.3,171.4,37.5,171.4z
				 M33,161.3l3.8,3.8c0.4,0.4,1,0.4,1.4,0L60,143.4c0.3-0.3,0.3-0.6,0.3-0.7c0-0.2,0-0.5-0.3-0.7l-3.8-3.8
				c-0.3-0.3-0.6-0.3-0.7-0.3s-0.5,0-0.7,0.3L33,159.9c-0.3,0.3-0.3,0.6-0.3,0.7C32.7,160.8,32.8,161.1,33,161.3L33,161.3z"/>
			<path class="st2" d="M94.6,71.1c-0.4,0-0.7-0.1-1.1-0.3c-0.9-0.6-1.2-1.8-0.6-2.8c2.3-3.6,5-7.1,8.2-10.2
				c10.5-10.5,24-16.2,35.3-15c1.1,0.1,1.9,1.1,1.8,2.2c-0.1,1.1-1.1,1.9-2.2,1.8c-10.1-1.1-22.4,4.2-32,13.8
				c-2.9,2.9-5.5,6.1-7.6,9.5C95.9,70.8,95.3,71.1,94.6,71.1z"/>
			<path class="st2" d="M108.3,112.2c-1.1,0-2-0.9-2-2c0-1.1,0.9-2,2-2c7.7,0,16.6-3.5,24.3-9.6c0.9-0.7,2.1-0.5,2.8,0.3
				c0.7,0.9,0.5,2.1-0.3,2.8C126.7,108.4,116.9,112.2,108.3,112.2C108.3,112.2,108.3,112.2,108.3,112.2z"/>
			<path class="st2" d="M128.4,94.9c-0.5,0-1-0.2-1.4-0.6l-23.1-23.1c-0.8-0.8-0.8-2,0-2.8c0.8-0.8,2-0.8,2.8,0l23.1,23.1
				c0.8,0.8,0.8,2,0,2.8C129.4,94.7,128.9,94.9,128.4,94.9z"/>
			<path class="st2" d="M138.1,85.2c-0.5,0-1-0.2-1.4-0.6l-23.1-23.1c-0.8-0.8-0.8-2,0-2.8c0.8-0.8,2-0.8,2.8,0l23.1,23.1
				c0.8,0.8,0.8,2,0,2.8C139.1,85,138.6,85.2,138.1,85.2z"/>
			<path class="st2" d="M114,95.9c-0.5,0-1-0.2-1.4-0.6c-0.8-0.8-0.8-2,0-2.8l23.1-23.1c0.8-0.8,2-0.8,2.8,0c0.8,0.8,0.8,2,0,2.8
				l-23.1,23.1C115,95.7,114.5,95.9,114,95.9z"/>
			<path class="st2" d="M104.3,86.2c-0.5,0-1-0.2-1.4-0.6c-0.8-0.8-0.8-2,0-2.8L126,59.6c0.8-0.8,2-0.8,2.8,0c0.8,0.8,0.8,2,0,2.8
				l-23.1,23.1C105.3,86,104.8,86.2,104.3,86.2z"/>
		</g>
		<path class="st2" d="M166.4,119.6c-0.5,0-1-0.2-1.4-0.6c-3.2-3.1-5-7.3-5-11.8c0-4.3,1.7-8.4,4.8-11.5c0.8-0.8,2-0.8,2.8,0
			c0.8,0.8,0.8,2,0,2.8c-2.3,2.3-3.6,5.4-3.6,8.7c0,3.4,1.3,6.5,3.8,8.9c0.8,0.8,0.8,2,0.1,2.8C167.5,119.4,166.9,119.6,166.4,119.6
			z"/>
		<path class="st2" d="M147.4,119.6c-0.5,0-1-0.2-1.4-0.6c-0.8-0.8-0.7-2.1,0.1-2.8c2.4-2.3,3.8-5.5,3.8-8.8c0-3.4-1.3-6.5-3.8-8.9
			c-0.8-0.8-0.8-2-0.1-2.8c0.8-0.8,2-0.8,2.8-0.1c3.2,3.1,5,7.3,5,11.7c0,4.5-1.8,8.6-5,11.7C148.4,119.4,147.9,119.6,147.4,119.6z"
			/>
		<path class="st2" d="M157,123.5c-9.1,0-16.6-7.4-16.6-16.6c0-9.1,7.4-16.6,16.6-16.6c9.1,0,16.6,7.4,16.6,16.6
			C173.6,116.1,166.1,123.5,157,123.5z M157,96.3c-5.8,0-10.6,4.8-10.6,10.6s4.8,10.6,10.6,10.6s10.6-4.8,10.6-10.6
			S162.8,96.3,157,96.3z"/>
	</g>
</g>
</svg>
