<?xml version="1.0" encoding="utf-8"?>
<!-- Generator: Adobe Illustrator 19.0.0, SVG Export Plug-In . SVG Version: 6.00 Build 0)  -->
<svg version="1.1" id="Layer_1" xmlns="http://www.w3.org/2000/svg" xmlns:xlink="http://www.w3.org/1999/xlink" x="0px" y="0px"
	 viewBox="56 -5 140 37" style="enable-background:new 56 -5 140 37;" xml:space="preserve">
<style type="text/css">
	.st0{fill:#0E7DFF;}
</style>
<g>
	<path class="st0" d="M83.3,15.4V-2.9c0-1.1,0.9-2,2-2c1.1,0,2,0.9,2,2v18.3c0,0.4,0.1,0.8,0.3,1.2c0.2,0.3,0.5,0.6,0.8,0.9
		c0.9,0.6,1.2,1.8,0.6,2.8c-0.6,0.9-1.9,1.2-2.8,0.6c-0.9-0.6-1.6-1.4-2.1-2.3C83.5,17.5,83.3,16.5,83.3,15.4L83.3,15.4z"/>
	<path class="st0" d="M99.8,1.2c2.8,0,5.2,1.1,7.1,2.9c1.8,1.8,2.9,4.3,2.9,7v4c0,0,0,0.1,0,0.1c0,0.1,0,0.1,0,0.1
		c0,0.4,0.1,0.8,0.3,1.2c0.2,0.3,0.5,0.6,0.8,0.9c0.9,0.6,1.2,1.8,0.6,2.8c-0.6,0.9-1.9,1.2-2.8,0.6c-0.9-0.6-1.6-1.4-2.1-2.3
		c-1.8,1.6-4.1,2.6-6.8,2.6c-2.7,0-5.2-1.1-7-2.9c-1.8-1.8-2.9-4.3-2.9-7c0-2.8,1.1-5.2,2.9-7C94.5,2.3,97.1,1.2,99.8,1.2L99.8,1.2z
		 M104,6.9c-1.1-1.1-2.6-1.7-4.2-1.7c-1.7,0-3.1,0.7-4.2,1.7c-1.1,1.1-1.7,2.6-1.7,4.2c0,1.6,0.7,3.1,1.7,4.2
		c1.1,1.1,2.6,1.7,4.2,1.7c1.7,0,3.1-0.7,4.2-1.7c1.1-1.1,1.7-2.6,1.7-4.2C105.8,9.5,105.1,8,104,6.9L104,6.9z"/>
	<path class="st0" d="M176.6,10.9c0-2.7,1.1-5.1,2.8-6.8c1.8-1.7,4.2-2.8,6.8-2.8s5.1,1.1,6.8,2.8c1.7,1.8,2.8,4.2,2.8,6.8l0,0v7.9
		c0,1.1-0.9,2-2,2s-2-0.9-2-2v-7.9c0-1.6-0.6-3-1.7-4c-1-1-2.5-1.7-4-1.7c-1.6,0-3,0.6-4,1.7c-1,1-1.7,2.4-1.7,4v7.9
		c0,1.1-0.9,2-2,2c-1.1,0-2-0.9-2-2V10.9z"/>
	<path class="st0" d="M143.4,20.7L143.4,20.7c-0.1,0-0.1,0-0.1,0l0,0h0h0l0,0l0,0h0h0l0,0h0h0h0h0h0l0,0h0h0l0,0l0,0h0h0l0,0
		c-0.1,0-0.1,0-0.1,0l0,0c-0.1,0-0.2,0-0.2-0.1c-2.5-0.7-4.6-2-6.1-3.7c-1.6-1.7-2.5-3.8-2.5-6.1V3.2c0-1.1,0.9-2,2-2s2,0.9,2,2v7.7
		c0,1.3,0.5,2.5,1.4,3.5c0.9,1,2.2,1.8,3.7,2.4c1.5-0.5,2.8-1.4,3.7-2.4c0.9-1,1.4-2.2,1.4-3.5V3.2c0-1.1,0.9-2,2-2c1.1,0,2,0.9,2,2
		v7.7c0,2.3-0.9,4.4-2.5,6.1c-1.5,1.7-3.6,3-6.1,3.7C143.6,20.7,143.5,20.7,143.4,20.7L143.4,20.7z"/>
	<path class="st0" d="M164.5,21.1c-2.8,0-5.2-1.1-7.1-2.9c-1.8-1.8-2.9-4.3-2.9-7c0-2.8,1.1-5.2,2.9-7.1c1.8-1.8,4.3-2.9,7.1-2.9
		c2.7,0,5.2,1.1,7,2.9c1.8,1.8,2.9,4.3,2.9,7.1c0,1.1-0.9,2-2,2h-13.6c0.3,0.8,0.8,1.6,1.4,2.2c1.1,1.1,2.6,1.8,4.2,1.8
		c0.9,0,1.8-0.1,2.6-0.4c0.8-0.3,1.6-0.7,2.3-1.2c0.9-0.6,2.1-0.4,2.8,0.5c0.7,0.9,0.5,2.1-0.5,2.8c-1,0.7-2.2,1.3-3.4,1.7
		C167,20.9,165.8,21.1,164.5,21.1L164.5,21.1z M170.1,9.2c-0.3-0.9-0.8-1.6-1.4-2.2c-1.1-1.1-2.6-1.8-4.2-1.8
		c-1.7,0-3.2,0.7-4.2,1.8c-0.6,0.6-1.1,1.4-1.4,2.2H170.1z"/>
	<path class="st0" d="M130.7,18.2c0,0.1,0,0.1,0,0.2v0c0,2.5-1,4.7-2.6,6.4c-1.6,1.7-3.8,2.8-6.3,2.9c-1.1,0.1-2-0.8-2.1-1.9
		c-0.1-1.1,0.8-2,1.9-2.1c1.4-0.1,2.7-0.7,3.6-1.7c0.9-1,1.5-2.3,1.5-3.7v0c0-0.1,0-0.1,0-0.2v-1.1c-1.5,1-3.3,1.6-5.2,1.6
		c-2.5,0-4.8-1-6.5-2.7s-2.7-4-2.7-6.5l0,0l0,0V3.2c0-1.1,0.9-2,2-2c1.1,0,2,0.9,2,2v6.4l0,0c0,1.4,0.6,2.7,1.5,3.7
		c0.9,0.9,2.3,1.5,3.7,1.5c1.5,0,2.8-0.6,3.7-1.5c0.9-0.9,1.5-2.2,1.5-3.7V3.2c0-1.1,0.9-2,2-2c1.1,0,2,0.9,2,2v6.4V18.2z"/>
	<path class="st0" d="M63.7,4.1c1.8-1.8,4.3-2.9,7-2.9c2.8,0,5.2,1.1,7.1,2.9c1.8,1.8,2.9,4.3,2.9,7c0,2.8-1.1,5.2-2.9,7
		c-4.6,4.6-7.7,1.8-12.9,3.3c-1.6,0.5-3,1.2-4.1,2.4l0,0l-1.4,1.4c-0.8,0.8-2.1,0.8-2.8,0c-0.8-0.8-0.8-2,0-2.8L58,21l0.1-0.1
		c1.1-1.1,1.9-2.5,2.3-4C61.9,11.8,59.1,8.7,63.7,4.1L63.7,4.1z M75,15.4c1.1-1.1,1.7-2.6,1.7-4.2c0-1.6-0.7-3.1-1.7-4.2
		c-1.1-1.1-2.6-1.7-4.2-1.7c-1.7,0-3.1,0.7-4.2,1.7c-2.8,2.8-1.2,6.7-2.2,10.6C68.2,16.5,72.2,18.1,75,15.4L75,15.4z"/>
</g>
</svg>
