<?xml version="1.0" encoding="utf-8"?>
<!-- Generator: Adobe Illustrator 19.0.0, SVG Export Plug-In . SVG Version: 6.00 Build 0)  -->
<svg version="1.1" id="Layer_1" xmlns="http://www.w3.org/2000/svg" xmlns:xlink="http://www.w3.org/1999/xlink" x="0px" y="0px"
	 viewBox="86 -87 200 200" style="enable-background:new 86 -87 200 200;" xml:space="preserve">
<style type="text/css">
	.st0{display:none;}
	.st1{display:inline;opacity:0.22;fill:#001E33;enable-background:new    ;}
	.st2{fill-rule:evenodd;clip-rule:evenodd;fill:#0E7DFF;}
</style>
<g id="guide_boundary" class="st0">
	<rect x="111" y="-61.5" class="st1" width="150" height="150"/>
</g>
<path class="st2" d="M185.9-59.7c20.3,0,38.8,8.3,52.1,21.6c13.3,13.3,21.6,31.8,21.6,52.1s-8.2,38.8-21.6,52.1
	c-13.3,13.3-31.8,21.6-52.1,21.6s-38.8-8.2-52.1-21.6c-13.3-13.3-21.6-31.8-21.6-52.1s8.2-38.8,21.6-52.1
	C147.1-51.4,165.5-59.7,185.9-59.7L185.9-59.7z M233.7-33.8c-12.2-12.2-29.1-19.8-47.8-19.8c-18.7,0-35.6,7.6-47.8,19.8
	C125.8-21.6,118.2-4.7,118.2,14s7.6,35.6,19.8,47.8c12.2,12.2,29.1,19.8,47.8,19.8c18.7,0,35.6-7.6,47.8-19.8
	c12.2-12.2,19.8-29.1,19.8-47.8S245.9-21.6,233.7-33.8z"/>
<path class="st2" d="M192.7,4.8c5.7,0,10.3-4.6,10.3-10.3s-4.6-10.3-10.3-10.3s-10.3,4.6-10.3,10.3S187.1,4.8,192.7,4.8z"/>
<ellipse transform="matrix(-0.5 -0.866 0.866 -0.5 285.7509 220.5612)" class="st2" cx="206.5" cy="27.8" rx="8.6" ry="9.5"/>
<ellipse transform="matrix(-0.5 -0.866 0.866 -0.5 300.7426 106.8654)" class="st2" cx="181.2" cy="-33.4" rx="7.5" ry="8.3"/>
<ellipse transform="matrix(-0.5 -0.866 0.866 -0.5 243.3818 94.4782)" class="st2" cx="149" cy="-23" rx="6.5" ry="8.3"/>
<ellipse transform="matrix(-0.2588 -0.9659 0.9659 -0.2588 189.0648 164.0332)" class="st2" cx="157.5" cy="9.5" rx="10.3" ry="9.2"/>
<ellipse transform="matrix(-0.7071 -0.7071 0.7071 -0.7071 269.9238 200.1727)" class="st2" cx="176.4" cy="44.2" rx="10.3" ry="9.2"/>
<ellipse transform="matrix(0.5 -0.866 0.866 0.5 134.3801 169.3461)" class="st2" cx="213.9" cy="-31.7" rx="5.2" ry="8.6"/>
<ellipse class="st2" cx="230.8" cy="9.2" rx="5.2" ry="8.6"/>
<ellipse transform="matrix(0.9659 -0.2588 0.2588 0.9659 -2.6567 35.7312)" class="st2" cx="134.4" cy="28" rx="5.2" ry="8.6"/>
<ellipse transform="matrix(0.7071 -0.7071 0.7071 0.7071 6.7527 122.6564)" class="st2" cx="151.4" cy="53.2" rx="5.2" ry="8.6"/>
<ellipse transform="matrix(-0.5 -0.866 0.866 -0.5 278.0128 269.3918)" class="st2" cx="216.8" cy="54.4" rx="5.2" ry="8.6"/>
<ellipse class="st2" cx="180" cy="70" rx="8.6" ry="4"/>
<ellipse transform="matrix(-0.9659 -0.2589 0.2589 -0.9659 256.4318 26.3728)" class="st2" cx="130" cy="-3.7" rx="4" ry="8.6"/>
<ellipse transform="matrix(-0.9659 -0.2588 0.2588 -0.9659 465.7302 128.1497)" class="st2" cx="241.3" cy="33.4" rx="4" ry="8.6"/>
<path class="st2" d="M238.6-10.8c-1.8-3.7-2.2-7.4-0.9-8.3c1.2-0.8,3.7,1.5,5.5,5.3c1.8,3.7,2.2,7.4,0.9,8.3
	C242.8-4.7,240.4-7,238.6-10.8z"/>
</svg>
