<?xml version="1.0" encoding="utf-8"?>
<!-- Generator: Adobe Illustrator 19.0.0, SVG Export Plug-In . SVG Version: 6.00 Build 0)  -->
<svg version="1.1" id="Layer_1" xmlns="http://www.w3.org/2000/svg" xmlns:xlink="http://www.w3.org/1999/xlink" x="0px" y="0px"
	 viewBox="86 -87 200 200" style="enable-background:new 86 -87 200 200;" xml:space="preserve">
<style type="text/css">
	.st0{display:none;}
	.st1{display:inline;opacity:0.22;fill:#001E33;enable-background:new    ;}
	.st2{fill:none;stroke:#F2F2F2;stroke-width:6;stroke-miterlimit:10;}
	.st3{fill:#0E7DFF;}
	.st4{fill:none;stroke:#0E7DFF;stroke-width:6;stroke-miterlimit:10;}
	.st5{fill:none;stroke:#FFFFFF;stroke-width:6;stroke-miterlimit:10;}
	.st6{clip-path:url(#SVGID_2_);fill:#0E7DFF;stroke:#0E7DFF;stroke-width:6;stroke-miterlimit:10;}
</style>
<g id="guide_boundary" class="st0">
	<rect x="111" y="-61.5" class="st1" width="150" height="150"/>
</g>
<circle class="st2" cx="186.2" cy="12.2" r="71.1"/>
<path class="st3" d="M182.2-12.1L161.8,2.5c-2.4,1.7-3.4,4.8-2.5,7.6l8.1,24.3c0.9,2.7,3.5,4.6,6.4,4.6h24.7c2.9,0,5.5-1.8,6.4-4.6
	l8.1-24.2c0.9-2.8-0.1-5.9-2.5-7.6L190-12.1C187.6-13.8,184.5-13.8,182.2-12.1z"/>
<line class="st4" x1="208.2" y1="7.9" x2="243.2" y2="-6.3"/>
<line class="st5" x1="186.1" y1="-7.9" x2="186.2" y2="-43.9"/>
<line class="st4" x1="199.6" y1="32.5" x2="216.3" y2="61.5"/>
<line class="st4" x1="164" y1="7.9" x2="128.9" y2="-6.3"/>
<line class="st4" x1="186.1" y1="-7.9" x2="186" y2="-43.9"/>
<line class="st4" x1="172.6" y1="32.5" x2="155.8" y2="61.5"/>
<g>
	<defs>
		<circle id="SVGID_1_" cx="186.2" cy="12.2" r="71.1"/>
	</defs>
	<clipPath id="SVGID_2_">
		<use xlink:href="#SVGID_1_"  style="overflow:visible;"/>
	</clipPath>
	<path class="st6" d="M190.1-39.8l15.7-11.2c2.4-1.7,3.4-4.8,2.5-7.6L202-77.2c-0.9-2.7-3.5-4.6-6.4-4.6h-18.9
		c-2.9,0-5.5,1.8-6.4,4.6l-6.2,18.7c-0.9,2.8,0.1,5.9,2.5,7.6l15.7,11.2C184.6-38.1,187.7-38.1,190.1-39.8z"/>
	<path class="st6" d="M238.9-0.1l15.3,11.7c2.3,1.8,5.6,1.8,8,0.1l16-11.5c2.4-1.7,3.4-4.7,2.5-7.4l-5.6-18.1
		c-0.9-2.8-3.4-4.7-6.3-4.7l-19.7-0.5c-3-0.1-5.6,1.8-6.5,4.6l-6.1,18.3C235.7-4.8,236.6-1.9,238.9-0.1z"/>
	<path class="st6" d="M210.8,59.5l-7.5,17.8c-1.1,2.7-0.4,5.9,1.9,7.8l15.1,12.6c2.2,1.8,5.4,2.1,7.8,0.5l16.1-10
		c2.5-1.5,3.7-4.4,3-7.3l-4.5-19.1c-0.7-2.9-3.2-5-6.1-5.2l-19.2-1.2C214.5,55.2,211.9,56.8,210.8,59.5z"/>
	<path class="st6" d="M133.3-0.1L118,11.6c-2.3,1.8-5.6,1.8-8,0.1L94,0.3c-2.4-1.7-3.4-4.7-2.5-7.4l5.6-18.1
		c0.9-2.8,3.4-4.7,6.3-4.7l19.7-0.5c3-0.1,5.6,1.8,6.5,4.6l6.1,18.3C136.5-4.8,135.6-1.9,133.3-0.1z"/>
	<path class="st6" d="M161.4,59.5l7.5,17.8c1.1,2.7,0.4,5.9-1.9,7.8l-15.1,12.6c-2.2,1.8-5.4,2.1-7.8,0.5l-16.1-10
		c-2.5-1.5-3.7-4.4-3-7.3l4.5-19.1c0.7-2.9,3.2-5,6.1-5.2l19.2-1.2C157.7,55.2,160.3,56.8,161.4,59.5z"/>
	<use xlink:href="#SVGID_1_"  style="overflow:visible;fill:none;stroke:#0E7DFF;stroke-width:6;stroke-miterlimit:10;"/>
</g>
</svg>
