<?xml version="1.0" encoding="utf-8"?>
<!-- Generator: Adobe Illustrator 19.2.0, SVG Export Plug-In . SVG Version: 6.00 Build 0)  -->
<svg version="1.1" xmlns="http://www.w3.org/2000/svg" xmlns:xlink="http://www.w3.org/1999/xlink" x="0px" y="0px"
	 viewBox="0 0 200 200" style="enable-background:new 0 0 200 200;" xml:space="preserve">
<style type="text/css">
	.st0{display:none;}
	.st1{display:inline;opacity:0.22;fill:#001E33;}
	.st2{display:inline;fill:#1071FF;}
	.st3{fill:#1071FF;}
</style>
<g id="guide_boundary" class="st0">
	<rect x="25" y="25.5" class="st1" width="150" height="150"/>
</g>
<g id="Layer_2">
	<g class="st0">
		
			<rect x="87.8" y="120.3" transform="matrix(0.7071 -0.7071 0.7071 0.7071 -51.5097 122.4365)" class="st2" width="68.5" height="6.2"/>
		<path class="st2" d="M165.1,84.8l-4.4-4.4c10.5-10.5,10.8-27.1,0.8-37.1l-4.2-4.2c-4.8-4.8-11.3-7.4-18.3-7.3
			c-7,0.1-13.7,3-18.8,8.1l-4.4-4.4c6.2-6.2,14.4-9.8,23.1-9.9c8.7-0.2,16.8,3.1,22.9,9.1l4.2,4.2C178.3,51.3,178,71.9,165.1,84.8z"
			/>
		
			<rect x="42.9" y="75.4" transform="matrix(0.7071 -0.7071 0.7071 0.7071 -32.9372 77.4965)" class="st2" width="68.4" height="6.2"/>
		<path class="st2" d="M60.5,175.5c-8.4,0-16.3-3.2-22.2-9.1l-4.2-4.2c-6-6-9.3-14.2-9.1-22.9c0.2-8.7,3.7-16.9,9.9-23.1l4.4,4.4
			c-5.1,5.1-8,11.8-8.1,18.8c-0.1,7,2.4,13.5,7.3,18.3l4.2,4.2c4.8,4.8,11.4,7.4,18.3,7.3c7-0.1,13.7-3,18.8-8.1l4.4,4.4
			c-6.2,6.2-14.4,9.8-23.1,9.9C61,175.5,60.7,175.5,60.5,175.5z"/>
		<path class="st2" d="M151.1,104.3c-2.4,0-4.7-0.9-6.4-2.6l-0.9-0.9c-3.6-3.6-3.5-9.5,0.2-13.1l6.4-6.4c3.7-3.7,9.6-3.7,13.1-0.2
			l0.9,0.9c1.7,1.7,2.7,4.1,2.6,6.6c0,2.5-1,4.8-2.8,6.5l-6.4,6.4c-1.8,1.8-4.1,2.7-6.5,2.8C151.2,104.3,151.1,104.3,151.1,104.3z
			 M157.1,84.7c-0.8,0-1.7,0.3-2.3,1l-6.4,6.4c-1.2,1.2-1.3,3.2-0.2,4.3l0.9,0.9c0.5,0.5,1.3,0.8,2.1,0.8c0.8,0,1.6-0.4,2.3-1
			l6.4-6.4c0.6-0.6,1-1.4,1-2.3c0-0.8-0.3-1.5-0.8-2.1l0,0l-0.9-0.9C158.5,84.9,157.8,84.7,157.1,84.7z"/>
		
			<rect x="129" y="44.7" transform="matrix(0.7071 -0.7071 0.7071 0.7071 -10.3999 113.7892)" class="st2" width="6.2" height="49.6"/>
		
			<rect x="65.3" y="108.4" transform="matrix(0.7071 -0.7071 0.7071 0.7071 -74.1584 87.3816)" class="st2" width="6.2" height="49.6"/>
		<path class="st2" d="M132.7,76.8c-2.1,0-4.1-0.8-5.6-2.3c-1.5-1.5-2.3-3.6-2.3-5.8c0-2.1,0.9-4.2,2.4-5.7l4.4,4.4
			c-0.4,0.4-0.6,0.9-0.6,1.4c0,0.3,0,0.8,0.5,1.2c0.4,0.4,1,0.5,1.2,0.5c0.5,0,1-0.2,1.4-0.6l4.4,4.4c-1.5,1.5-3.6,2.4-5.7,2.4
			C132.8,76.8,132.8,76.8,132.7,76.8z"/>
		<path class="st2" d="M73.3,139.6l-4.4-4.4c0.8-0.8,0.8-2,0.1-2.7c-0.7-0.7-1.9-0.6-2.7,0.1l-4.4-4.4c3.2-3.2,8.3-3.3,11.5-0.1
			C76.6,131.3,76.5,136.4,73.3,139.6z"/>
		<path class="st2" d="M106.1,59.3c-2.4,0-4.7-0.9-6.4-2.6l-0.9-0.9c-1.7-1.7-2.7-4.1-2.6-6.6c0-2.5,1-4.8,2.8-6.5l6.4-6.4
			c3.7-3.7,9.6-3.7,13.1-0.2l0.9,0.9c1.7,1.7,2.7,4.1,2.6,6.6c0,2.5-1,4.8-2.8,6.5l-6.4,6.4c-1.8,1.8-4.1,2.7-6.5,2.8
			C106.3,59.3,106.2,59.3,106.1,59.3z M112.1,39.7c-0.8,0-1.7,0.3-2.3,1l-6.4,6.4c-0.6,0.6-1,1.4-1,2.3c0,0.8,0.3,1.5,0.8,2.1v0
			l0.9,0.9c0.5,0.5,1.3,0.8,2.1,0.8c0.8,0,1.6-0.4,2.3-1l6.4-6.4c0.6-0.6,1-1.4,1-2.3c0-0.8-0.3-1.5-0.8-2.1l-0.9-0.9
			C113.6,40,112.9,39.7,112.1,39.7z"/>
		<path class="st2" d="M42.3,123.2c-2.3,0-4.6-0.9-6.4-2.6l-0.9-0.9c-3.6-3.6-3.5-9.5,0.2-13.1l6.4-6.4c1.8-1.8,4.1-2.7,6.5-2.8
			c2.5-0.1,4.8,0.9,6.6,2.6l0.9,0.9c1.7,1.7,2.7,4.1,2.6,6.6c0,2.5-1,4.8-2.8,6.5l-6.4,6.4C47.1,122.3,44.7,123.2,42.3,123.2z
			 M48.3,103.6C48.2,103.6,48.2,103.6,48.3,103.6c-0.9,0-1.7,0.4-2.3,1l-6.4,6.4c-1.2,1.2-1.3,3.2-0.2,4.3l0.9,0.9
			c1.1,1.1,3.1,1.1,4.3-0.2l6.4-6.4c0.6-0.6,1-1.4,1-2.3c0-0.8-0.3-1.5-0.8-2.1l-0.9-0.9C49.7,103.9,49,103.6,48.3,103.6z"/>
		<path class="st2" d="M87.3,168.2c-2.5,0-4.8-1-6.6-2.7l-0.7-0.7c-1.8-1.8-2.7-4.1-2.7-6.6c0-2.5,1-4.8,2.7-6.6l6.6-6.6
			c1.7-1.7,4.1-2.7,6.6-2.7s4.8,1,6.6,2.7l0.7,0.7c3.6,3.6,3.6,9.5,0,13.1l-6.6,6.6C92.1,167.2,89.7,168.2,87.3,168.2z M93.1,148.6
			c-0.8,0-1.6,0.3-2.2,0.9l-6.6,6.6c-0.6,0.6-0.9,1.3-0.9,2.2c0,0.8,0.3,1.6,0.9,2.2l0.7,0.7c1.1,1.1,3.2,1.1,4.3,0l6.6-6.6
			c0.6-0.6,0.9-1.3,0.9-2.2c0-0.8-0.3-1.6-0.9-2.2l-0.7-0.7C94.7,148.9,93.9,148.6,93.1,148.6z"/>
	</g>
	<g>
		<g>
			<path class="st3" d="M34.5,174.9c-1.6,0-3.2-0.6-4.3-1.8l-3.6-3.6c-1.2-1.2-1.8-2.7-1.8-4.3c0-1.6,0.6-3.2,1.8-4.3l17.2-17.2
				c1.2-1.2,2.7-1.8,4.3-1.8c1.6,0,3.2,0.6,4.3,1.8l3.6,3.6c1.2,1.2,1.8,2.7,1.8,4.3c0,1.6-0.6,3.2-1.8,4.3l-17.2,17.2
				C37.7,174.3,36.1,174.9,34.5,174.9z M34.7,168.6L34.7,168.6L34.7,168.6z M31.2,165.2l3.2,3.2l16.9-16.9l-3.2-3.2L31.2,165.2z"/>
			<path class="st3" d="M127.7,88.8c-0.5,0-1.1-0.2-1.5-0.6l-14.8-14.8c-0.8-0.8-0.8-2.2,0-3c0.8-0.8,2.2-0.8,3,0l14.8,14.8
				c0.8,0.8,0.8,2.2,0,3C128.8,88.6,128.3,88.8,127.7,88.8z"/>
			<path class="st3" d="M133.9,82.6c-0.5,0-1.1-0.2-1.5-0.6l-14.8-14.8c-0.8-0.8-0.8-2.2,0-3c0.8-0.8,2.2-0.8,3,0L135.4,79
				c0.8,0.8,0.8,2.2,0,3C135,82.4,134.5,82.6,133.9,82.6z"/>
			<path class="st3" d="M114.3,93.7c-0.5,0-1.1-0.2-1.5-0.6c-0.8-0.8-0.8-2.2,0-3L137,65.8c0.8-0.8,2.2-0.8,3,0c0.8,0.8,0.8,2.2,0,3
				l-24.2,24.2C115.4,93.5,114.8,93.7,114.3,93.7z"/>
			<path class="st3" d="M108.1,87.5c-0.5,0-1.1-0.2-1.5-0.6c-0.8-0.8-0.8-2.2,0-3l24.2-24.2c0.8-0.8,2.2-0.8,3,0
				c0.8,0.8,0.8,2.2,0,3l-24.2,24.2C109.2,87.3,108.6,87.5,108.1,87.5z"/>
			<path class="st3" d="M101.5,124.7c-10,0-17.8-2.3-21-5.4l-0.1-0.1c-3.5-3.5-5.5-11.8-5.4-21.7c0.1-10.1,2.8-36.1,25.7-58
				c31.8-30.4,60.5-1.5,60.7-1.2l0.1,0.1c0.2,0.2,25.5,25.2,4,54.5c-1,1.4-3,1.7-4.5,0.7c-1.4-1-1.7-3-0.7-4.5
				c18.2-24.8-2.4-45.3-3.3-46.2l-0.1-0.1c-1-1-24.6-24.6-51.8,1.4C84,64.2,81.4,88.1,81.3,97.5c-0.1,9.8,2.1,15.6,3.6,17.1l0.1,0.1
				c4.3,4.3,31.6,8,57.4-9.2c1.5-1,3.5-0.6,4.4,0.9c1,1.5,0.6,3.5-0.9,4.4C130.8,121,114.4,124.7,101.5,124.7z"/>
			<path class="st3" d="M53.9,148.9c-0.8,0-1.6-0.3-2.3-0.9c-1.2-1.2-1.2-3.3,0-4.5l15.6-15.6c0.9-1.2,6.6-9.9,7.8-34.3
				c0.1-1.8,1.6-3.1,3.3-3c1.8,0.1,3.1,1.6,3,3.3c-1.3,26.2-7.8,36.1-9.1,37.9c-0.2,0.2-0.3,0.4-0.5,0.6L56.2,148
				C55.6,148.6,54.7,148.9,53.9,148.9z M67.3,127.9C67.3,127.9,67.3,127.9,67.3,127.9C67.3,127.9,67.3,127.9,67.3,127.9z
				 M67.4,127.8C67.4,127.8,67.4,127.8,67.4,127.8L67.4,127.8z"/>
			<path class="st3" d="M53.9,148.9c-0.8,0-1.6-0.3-2.3-0.9c-1.2-1.2-1.2-3.3,0-4.5l15.7-15.7c0.2-0.2,0.4-0.4,0.7-0.6
				c1.7-1.2,11.6-7.4,37.7-9.1c1.8-0.1,3.3,1.2,3.4,3c0.1,1.8-1.2,3.3-3,3.4c-24.3,1.5-33.1,7-34.3,7.8L56.2,148
				C55.6,148.6,54.7,148.9,53.9,148.9z M71.9,132.3L71.9,132.3C71.9,132.3,71.9,132.3,71.9,132.3z"/>
			<path class="st3" d="M100.3,61.4c-0.4,0-0.9-0.1-1.3-0.4c-0.9-0.7-1.1-2-0.4-3c2.4-3.2,5.1-6.2,8-9c15.3-14.7,29-12.8,37.9-8.7
				c1.1,0.5,1.5,1.8,1,2.8c-0.5,1.1-1.8,1.5-2.8,1c-7.6-3.6-19.5-5.1-33.1,7.9c-2.7,2.6-5.3,5.5-7.5,8.5
				C101.6,61.1,101,61.4,100.3,61.4z"/>
			<path class="st3" d="M102.7,114.6c-3.6,0-6.7-0.4-9-1c-1.1-0.3-1.8-1.5-1.5-2.6c0.3-1.1,1.5-1.8,2.6-1.5c5.6,1.5,16.6,1.5,29-3.4
				c1.1-0.4,2.3,0.1,2.8,1.2c0.4,1.1-0.1,2.3-1.2,2.8C116.9,113.4,109,114.6,102.7,114.6z"/>
		</g>
		<path class="st3" d="M157.6,121.2c-9.5,0-17.3-7.7-17.3-17.3s7.7-17.3,17.3-17.3c9.5,0,17.3,7.7,17.3,17.3
			S167.1,121.2,157.6,121.2z M157.6,93c-6,0-10.9,4.9-10.9,10.9s4.9,10.9,10.9,10.9s10.9-4.9,10.9-10.9S163.6,93,157.6,93z"/>
		<g>
			<circle class="st3" cx="154.4" cy="100.7" r="2.7"/>
			<path class="st3" d="M154.4,104.4c-2.1,0-3.8-1.7-3.8-3.8s1.7-3.8,3.8-3.8c2.1,0,3.8,1.7,3.8,3.8S156.5,104.4,154.4,104.4z
				 M154.4,99c-0.9,0-1.6,0.7-1.6,1.6c0,0.9,0.7,1.6,1.6,1.6c0.9,0,1.6-0.7,1.6-1.6C156,99.8,155.3,99,154.4,99z"/>
		</g>
		<g>
			<circle class="st3" cx="160.9" cy="107.1" r="2.7"/>
			<path class="st3" d="M160.9,110.9c-2.1,0-3.8-1.7-3.8-3.8s1.7-3.8,3.8-3.8c2.1,0,3.8,1.7,3.8,3.8S162.9,110.9,160.9,110.9z
				 M160.9,105.5c-0.9,0-1.6,0.7-1.6,1.6s0.7,1.6,1.6,1.6c0.9,0,1.6-0.7,1.6-1.6S161.8,105.5,160.9,105.5z"/>
		</g>
	</g>
</g>
</svg>
