<?xml version="1.0" encoding="utf-8"?>
<!-- Generator: Adobe Illustrator 19.2.0, SVG Export Plug-In . SVG Version: 6.00 Build 0)  -->
<svg version="1.1" xmlns="http://www.w3.org/2000/svg" xmlns:xlink="http://www.w3.org/1999/xlink" x="0px" y="0px"
	 viewBox="0 0 200 200" style="enable-background:new 0 0 200 200;" xml:space="preserve">
<style type="text/css">
	.st0{display:none;}
	.st1{display:inline;opacity:0.22;fill:#001E33;}
	.st2{fill:#F1F4FE;}
	.st3{display:none;opacity:0.22;fill:#001E33;}
</style>
<g id="guide_boundary" class="st0">
	<rect x="25" y="25.2" class="st1" width="150" height="150"/>
</g>
<g id="Layer_2">
	<g>
		<path class="st2" d="M51.9,174.5c-0.3,0-0.6,0-0.9,0c-6.7-0.2-13-3-17.7-7.8c-4.7-4.7-7.4-11.3-7.4-18.1c0-7,2.5-13.4,7.3-18.2
			l11.8-11.8c1.1-1.1,3-1.1,4.1,0L81.4,151c1.1,1.1,1.1,3,0,4.1l-12.4,12.4l0,0C64.4,172.1,58.4,174.5,51.9,174.5z M47,124.9
			l-9.7,9.7c-3.6,3.6-5.6,8.6-5.6,14c0,5.3,2.1,10.4,5.7,14c3.7,3.7,8.7,5.9,13.8,6.1c5.2,0.2,10-1.7,13.6-5.2l10.3-10.4L47,124.9z
			 M66.9,165.5L66.9,165.5L66.9,165.5z"/>
		<path class="st2" d="M69.1,163.9c-0.7,0-1.5-0.3-2.1-0.9l-31.2-31.2c-1.1-1.1-1.1-3,0-4.1c1.1-1.1,3-1.1,4.1,0l31.2,31.2
			c1.1,1.1,1.1,3,0,4.1C70.6,163.6,69.9,163.9,69.1,163.9z"/>
		<path class="st2" d="M71.3,148c-0.9,0-1.7-0.4-2.3-1.1c-1-1.3-0.8-3.1,0.5-4.1l73.8-59l-3.6-22.1l-22.7-4.2l-58.7,74.1
			c-1,1.3-2.8,1.5-4.1,0.5c-1.3-1-1.5-2.8-0.5-4.1l59.8-75.4c0.7-0.8,1.8-1.3,2.8-1.1l26.5,4.9c1.2,0.2,2.1,1.2,2.3,2.4l4.2,25.8
			c0.2,1-0.2,2.1-1.1,2.7l-75.1,60.1C72.6,147.8,71.9,148,71.3,148z"/>
		<path class="st2" d="M47,123.7c-0.3,0-0.7-0.1-1-0.2c-1.5-0.5-2.3-2.2-1.8-3.7L74.8,34c0.3-1,1.2-1.7,2.2-1.9l29.7-6.2
			c1.4-0.3,2.9,0.5,3.4,1.9l8.5,25.5c0.5,1.5-0.3,3.2-1.8,3.7c-1.5,0.5-3.2-0.3-3.7-1.8l-7.7-23l-25.6,5.3l-30,84.2
			C49.3,122.9,48.2,123.7,47,123.7z"/>
		<path class="st2" d="M79.3,156c-1.2,0-2.3-0.7-2.7-1.9c-0.5-1.5,0.3-3.2,1.8-3.7l84.2-30l5.3-25.6l-23-7.7
			c-1.5-0.5-2.4-2.2-1.8-3.7c0.5-1.5,2.2-2.4,3.7-1.8l25.5,8.5c1.4,0.5,2.2,1.9,1.9,3.4l-6.2,29.7c-0.2,1-0.9,1.8-1.9,2.2
			l-85.7,30.5C80,156,79.6,156,79.3,156z"/>
		<path class="st2" d="M127.7,138.5c-1.1,0-2.1-0.6-2.6-1.6l-5.5-10.7c-5-9.7-11.5-18.5-19.2-26.2C93,92.8,84.7,86.6,75.6,81.7
			l-12.8-6.9c-1.4-0.8-1.9-2.5-1.2-4c0.8-1.4,2.5-1.9,4-1.2l12.8,6.9c9.6,5.2,18.3,11.7,26,19.4c8.1,8.1,15,17.4,20.3,27.7l5.5,10.7
			c0.7,1.4,0.2,3.2-1.2,3.9C128.6,138.4,128.1,138.5,127.7,138.5z"/>
		<path class="st2" d="M108.6,145.6c-1.1,0-2.2-0.6-2.7-1.7l-2.5-5.5c-4.3-9.4-10.2-17.8-17.5-25.1c-6.3-6.3-13.4-11.5-21.2-15.6
			l-8.4-4.4c-1.4-0.7-2-2.5-1.2-3.9c0.7-1.4,2.5-2,3.9-1.2l8.4,4.4c8.4,4.4,16,9.9,22.7,16.6c7.8,7.8,14.1,16.8,18.6,26.8l2.5,5.5
			c0.7,1.5,0,3.2-1.4,3.9C109.4,145.5,109,145.6,108.6,145.6z"/>
	</g>
	<rect x="21" y="24.9" class="st3" width="150" height="150"/>
</g>
</svg>
