<?xml version="1.0" encoding="utf-8"?>
<!-- Generator: Adobe Illustrator 19.0.0, SVG Export Plug-In . SVG Version: 6.00 Build 0)  -->
<svg version="1.1" id="Layer_1" xmlns="http://www.w3.org/2000/svg" xmlns:xlink="http://www.w3.org/1999/xlink" x="0px" y="0px"
	 viewBox="86 -87 200 200" style="enable-background:new 86 -87 200 200;" xml:space="preserve">
<style type="text/css">
	.st0{display:none;}
	.st1{display:inline;opacity:0.22;fill:#001E33;enable-background:new    ;}
	.st2{fill:none;stroke:#F1F4FE;stroke-width:6;stroke-miterlimit:10;}
	.st3{fill:none;stroke:#F1F4FE;stroke-width:6;stroke-linecap:round;stroke-linejoin:round;stroke-miterlimit:10;}
	.st4{fill:none;stroke:#F1F4FE;stroke-width:6;stroke-linecap:round;stroke-miterlimit:10;}
</style>
<g id="guide_boundary" class="st0">
	<rect x="111" y="-61.5" class="st1" width="150" height="150"/>
</g>
<g id="surface1">
	<path class="st2" d="M139.1-15.2c0-25.9,21-46.9,46.9-46.9c25.9,0,46.9,21,46.9,46.9c0,25.9-21,46.9-46.9,46.9
		C160.1,31.7,139.1,10.7,139.1-15.2z"/>
	<path class="st3" d="M200.1-47.6c-1.1,1.1-1.8,2.7-1.8,4.4c0,1.7,0.7,3.3,1.8,4.4"/>
	<path class="st3" d="M211.8-30.9c-1.1,1.1-1.8,2.7-1.8,4.4c0,1.7,0.7,3.3,1.8,4.4"/>
	<path class="st3" d="M200.1-19.7c-1.1,1.1-1.8,2.7-1.8,4.4c0,1.7,0.7,3.3,1.8,4.4"/>
	<path class="st3" d="M200.1,8.1c-1.1,1.1-1.8,2.7-1.8,4.4c0,1.7,0.7,3.2,1.8,4.4"/>
	<path class="st3" d="M211.8-3c-1.1,1.1-1.8,2.7-1.8,4.4c0,1.7,0.7,3.3,1.8,4.4"/>
	<path class="st3" d="M204.1,38c-7.7,4.8-8.1,9.5-8.1,9.5L186,88.5l-10-41.1c0,0-0.4-4.6-8.1-9.5"/>
	<path class="st3" d="M222.9-19.7c-1.1,1.1-1.8,2.7-1.8,4.4c0,1.7,0.7,3.3,1.8,4.4"/>
	<path class="st4" d="M162.1,35.6c7.3,3.4,15.4,5.3,23.9,5.3c8.6,0,16.7-1.9,24-5.3"/>
</g>
</svg>
