<?xml version="1.0" encoding="utf-8"?>
<!-- Generator: Adobe Illustrator 19.0.0, SVG Export Plug-In . SVG Version: 6.00 Build 0)  -->
<svg version="1.1" id="Layer_1" xmlns="http://www.w3.org/2000/svg" xmlns:xlink="http://www.w3.org/1999/xlink" x="0px" y="0px"
	 viewBox="86 -87 200 200" style="enable-background:new 86 -87 200 200;" xml:space="preserve">
<style type="text/css">
	.st0{display:none;}
	.st1{display:inline;opacity:0.22;fill:#001E33;enable-background:new    ;}
	.st2{fill-rule:evenodd;clip-rule:evenodd;fill:#F1F4FE;}
</style>
<g id="guide_boundary" class="st0">
	<rect x="111" y="-61.5" class="st1" width="150" height="150"/>
</g>
<path class="st2" d="M132.1,66.9c-1.8-1.8-2.5-4.2-2.2-6.7c0.3-2.2,1.3-4.5,3.2-6.4c2.4-2.4,4.8-4.6,7-6.6
	c9.7-8.9,15.4-14.2,12.6-32.1c-1.4-8.9-0.5-18.4,2.6-27.4c3-8.7,8.1-17,15.2-24.1c17.4-17.4,38.1-18.9,55.3-11.4
	c6.7,2.9,12.7,7.1,17.9,12.2s9.3,11.2,12.2,17.9c7.4,17.2,5.9,38-11.5,55.3c-7.1,7.1-15.4,12.2-24.1,15.2c-9,3.1-18.5,4-27.4,2.6
	c-17.8-2.8-23.2,2.9-32.1,12.6c-2,2.2-4.3,4.6-6.6,7c-1.8,1.8-4.1,2.9-6.4,3.2c-2.5,0.3-4.9-0.4-6.7-2.2L132.1,66.9L132.1,66.9z
	 M136.4,60.9c-0.1,0.6,0,1.1,0.3,1.3l9,9c0.3,0.3,0.8,0.4,1.3,0.3c0.8-0.1,1.7-0.5,2.5-1.3c2.5-2.5,4.6-4.7,6.4-6.8
	c10.4-11.3,16.6-18,37.9-14.6c7.9,1.3,16.3,0.5,24.3-2.3c7.8-2.7,15.2-7.3,21.6-13.7c15.2-15.2,16.6-33.2,10.1-48.2
	c-2.5-5.8-6.3-11.2-10.8-15.8c-4.6-4.6-10-8.3-15.8-10.8c-14.9-6.4-33-5.1-48.2,10.1c-6.4,6.4-11,13.9-13.7,21.6
	c-2.8,8-3.6,16.4-2.3,24.3c3.4,21.3-3.3,27.5-14.6,37.9c-2,1.9-4.3,3.9-6.8,6.4C136.9,59.2,136.5,60.1,136.4,60.9z"/>
<path class="st2" d="M128.6,0.4c4.6,0,8.7,1.9,11.8,4.9l0,0c3,3,4.9,7.2,4.9,11.8c0,4.6-1.9,8.8-4.9,11.8c-3,3-7.2,4.9-11.8,4.9
	c-4.6,0-8.8-1.9-11.8-4.9c-3-3-4.9-7.2-4.9-11.8c0-4.6,1.9-8.8,4.9-11.8C119.8,2.3,124,0.4,128.6,0.4L128.6,0.4z M135.7,9.9
	c-1.8-1.8-4.4-3-7.2-3c-2.8,0-5.3,1.1-7.2,3c-1.8,1.8-3,4.4-3,7.2c0,2.8,1.1,5.3,3,7.2c1.8,1.8,4.4,3,7.2,3s5.3-1.1,7.2-3
	c1.8-1.8,3-4.4,3-7.2C138.7,14.3,137.6,11.7,135.7,9.9L135.7,9.9z"/>
<path class="st2" d="M165.7,12.6c-0.8-1.6-0.1-3.6,1.6-4.3c1.6-0.8,3.6-0.1,4.3,1.6c1.3,2.8,3,5.6,4.8,8.2c1.8,2.6,3.9,5,6.2,7.3
	c2.3,2.3,4.8,4.4,7.3,6.2c2.6,1.9,5.4,3.5,8.2,4.8c1.6,0.8,2.3,2.7,1.6,4.3c-0.8,1.6-2.7,2.3-4.3,1.6c-3.2-1.5-6.3-3.3-9.2-5.4
	c-2.9-2-5.6-4.3-8.2-6.9s-4.9-5.3-6.9-8.2C169,18.9,167.2,15.8,165.7,12.6z"/>
</svg>
