<?xml version="1.0" encoding="utf-8"?>
<!-- Generator: Adobe Illustrator 19.0.0, SVG Export Plug-In . SVG Version: 6.00 Build 0)  -->
<svg version="1.1" id="Layer_1" xmlns="http://www.w3.org/2000/svg" xmlns:xlink="http://www.w3.org/1999/xlink" x="0px" y="0px"
	 viewBox="86 -87 200 200" style="enable-background:new 86 -87 200 200;" xml:space="preserve">
<style type="text/css">
	.st0{display:none;}
	.st1{display:inline;opacity:0.22;fill:#001E33;enable-background:new    ;}
	.st2{fill-rule:evenodd;clip-rule:evenodd;fill:#F1F4FE;}
</style>
<g id="guide_boundary" class="st0">
	<rect x="111" y="-61.5" class="st1" width="150" height="150"/>
</g>
<path class="st2" d="M186-61.7c20.6,0,39.3,8.4,52.8,21.9c13.5,13.5,21.9,32.2,21.9,52.8s-8.4,39.3-21.9,52.8
	c-13.5,13.5-32.2,21.9-52.8,21.9s-39.3-8.4-52.8-21.9S111.3,33.6,111.3,13c0-20.6,8.4-39.3,21.9-52.8S165.4-61.7,186-61.7L186-61.7z
	 M234.5-35.5c-12.4-12.4-29.5-20.1-48.5-20.1c-18.9,0-36.1,7.7-48.5,20.1C125.2-23.1,117.5-5.9,117.5,13c0,18.9,7.7,36.1,20.1,48.4
	s29.5,20.1,48.5,20.1c18.9,0,36.1-7.7,48.5-20.1c12.4-12.4,20.1-29.5,20.1-48.4S246.8-23.1,234.5-35.5z"/>
<path class="st2" d="M189.1,12.7c0.1,1.7-1.1,3.2-2.8,3.3c-1.7,0.1-3.2-1.1-3.3-2.8c-1.3-14.7,1.3-27.4,7.7-38.3
	c6.4-10.8,16.5-19.6,30.4-26.5c1.5-0.7,3.4-0.1,4.1,1.4c0.7,1.5,0.1,3.4-1.4,4.1c-12.8,6.3-22,14.3-27.8,24.1
	C190.2-12.2,187.9-0.6,189.1,12.7z"/>
<path class="st2" d="M184.7,15.8c-1.5-0.7-2.2-2.5-1.5-4.1c0.7-1.5,2.5-2.2,4.1-1.5c13.3,6.2,23.1,14.8,29.3,25.8
	c6.2,10.9,8.8,24.1,7.7,39.5c-0.1,1.7-1.6,3-3.3,2.9c-1.7-0.1-3-1.6-2.9-3.3c1-14.2-1.4-26.2-6.9-36.1
	C205.7,29.2,196.9,21.5,184.7,15.8z"/>
<path class="st2" d="M184.2,10.5c1.4-1,3.3-0.6,4.3,0.8s0.6,3.3-0.8,4.3c-12.1,8.4-24.4,12.6-37,12.5c-12.5-0.1-25.2-4.5-38.1-13.1
	c-1.4-0.9-1.8-2.8-0.8-4.3c0.9-1.4,2.8-1.8,4.3-0.8c11.8,7.9,23.4,11.9,34.7,12C162.1,22,173.2,18.2,184.2,10.5z"/>
<path class="st2" d="M153.2,24.3c0.4,1.7-0.7,3.3-2.4,3.7c-1.7,0.4-3.3-0.7-3.7-2.4c-3.7-17-2.7-32.8,2.8-47.3
	c5.5-14.4,15.6-27.5,30.3-39.2c1.3-1.1,3.2-0.8,4.3,0.5c1.1,1.3,0.8,3.2-0.5,4.3c-13.8,11-23.2,23.2-28.4,36.6
	C150.6-6.1,149.7,8.5,153.2,24.3z"/>
<path class="st2" d="M192.6-21.1c-1.6-0.5-2.5-2.2-2-3.9c0.5-1.6,2.2-2.5,3.9-2c16.6,5.3,29.8,14,39.5,26.1
	c9.7,12,16,27.3,18.8,45.8c0.3,1.7-0.9,3.2-2.6,3.5c-1.7,0.3-3.2-0.9-3.5-2.6c-2.7-17.5-8.5-31.8-17.5-42.9
	C220.3-8.1,208.1-16.1,192.6-21.1z"/>
<path class="st2" d="M212.2,35.8c1.3-1.1,3.2-1,4.3,0.2c1.1,1.3,1,3.2-0.2,4.3c-12.9,11.7-27,18.8-42.3,21.2
	c-15.3,2.4-31.6,0.2-49.1-6.6c-1.6-0.6-2.4-2.4-1.7-4s2.4-2.4,4-1.7c16.4,6.4,31.8,8.5,45.9,6.3C187.1,53.2,200.2,46.7,212.2,35.8z"
	/>
</svg>
