<?xml version="1.0" encoding="utf-8"?>
<!-- Generator: Adobe Illustrator 19.0.0, SVG Export Plug-In . SVG Version: 6.00 Build 0)  -->
<svg version="1.1" id="Layer_1" xmlns="http://www.w3.org/2000/svg" xmlns:xlink="http://www.w3.org/1999/xlink" x="0px" y="0px"
	 viewBox="0 1.6 25.9 25.4" style="enable-background:new 0 1.6 25.9 25.4;" xml:space="preserve">
<style type="text/css">
	.st0{fill:#FFFFFF;}
	.st1{display:none;opacity:0.22;fill:#001E33;enable-background:new    ;}
</style>
<title>cat_blue</title>
<g id="Layer_2">
	<g>
		<path class="st0" d="M4.9,26.9c-0.1,0-0.1,0-0.2,0c-1.1,0-2.2-0.5-3-1.3c-0.8-0.8-1.3-1.9-1.3-3.1c0-1.2,0.4-2.3,1.2-3.1l2-2
			c0.2-0.2,0.5-0.2,0.7,0l5.5,5.5c0.2,0.2,0.2,0.5,0,0.7l-2.1,2.1l0,0C7,26.5,6,26.9,4.9,26.9z M4.1,18.5l-1.6,1.6
			c-0.6,0.6-0.9,1.5-0.9,2.4c0,0.9,0.4,1.8,1,2.4c0.6,0.6,1.5,1,2.3,1c0.9,0,1.7-0.3,2.3-0.9l1.7-1.8L4.1,18.5z M7.5,25.4L7.5,25.4
			L7.5,25.4z"/>
		<path class="st0" d="M7.8,25.1c-0.1,0-0.3-0.1-0.4-0.2l-5.3-5.3C2,19.5,2,19.2,2.2,19c0.2-0.2,0.5-0.2,0.7,0l5.3,5.3
			c0.2,0.2,0.2,0.5,0,0.7C8.1,25.1,8,25.1,7.8,25.1z"/>
		<path class="st0" d="M8.2,22.4c-0.2,0-0.3-0.1-0.4-0.2c-0.2-0.2-0.1-0.5,0.1-0.7l12.5-10l-0.6-3.7l-3.8-0.7L6,19.6
			c-0.2,0.2-0.5,0.3-0.7,0.1S5.1,19.3,5.2,19L15.3,6.3c0.1-0.1,0.3-0.2,0.5-0.2l4.5,0.8c0.2,0,0.4,0.2,0.4,0.4l0.7,4.4
			c0,0.2,0,0.4-0.2,0.5L8.5,22.3C8.4,22.4,8.3,22.4,8.2,22.4z"/>
		<path class="st0" d="M4.1,18.3c-0.1,0-0.1,0-0.2,0c-0.3-0.1-0.4-0.4-0.3-0.6L8.8,3.1C8.8,3,9,2.8,9.2,2.8l5-1
			c0.2-0.1,0.5,0.1,0.6,0.3l1.4,4.3c0.1,0.3-0.1,0.5-0.3,0.6S15.4,7,15.3,6.7L14,2.8L9.6,3.7L4.6,18C4.5,18.2,4.3,18.3,4.1,18.3z"/>
		<path class="st0" d="M9.6,23.8c-0.2,0-0.4-0.1-0.5-0.3c-0.1-0.3,0.1-0.5,0.3-0.6l14.3-5.1l0.9-4.3l-3.9-1.3
			c-0.3-0.1-0.4-0.4-0.3-0.6c0.1-0.3,0.4-0.4,0.6-0.3l4.3,1.4c0.2,0.1,0.4,0.3,0.3,0.6l-1,5c0,0.2-0.2,0.3-0.3,0.4L9.7,23.8
			C9.7,23.8,9.6,23.8,9.6,23.8z"/>
		<path class="st0" d="M17.7,20.8c-0.2,0-0.4-0.1-0.4-0.3l-0.9-1.8c-0.8-1.6-1.9-3.1-3.2-4.4c-1.3-1.2-2.7-2.3-4.2-3.1L6.8,10
			C6.5,9.9,6.4,9.6,6.6,9.4C6.7,9.1,7,9,7.2,9.2l2.2,1.2c1.6,0.9,3.1,2,4.4,3.3c1.4,1.4,2.5,2.9,3.4,4.7l0.9,1.8
			c0.1,0.2,0,0.5-0.2,0.7C17.9,20.8,17.8,20.8,17.7,20.8z"/>
		<path class="st0" d="M14.5,22c-0.2,0-0.4-0.1-0.5-0.3l-0.4-0.9c-0.7-1.6-1.7-3-3-4.2c-1.1-1.1-2.3-1.9-3.6-2.6l-1.4-0.7
			c-0.2-0.1-0.3-0.4-0.2-0.7c0.1-0.2,0.4-0.3,0.7-0.2L7.5,13c1.4,0.7,2.7,1.7,3.8,2.8c1.3,1.3,2.4,2.8,3.1,4.5l0.4,0.9
			c0.1,0.3,0,0.5-0.2,0.7C14.7,22,14.6,22,14.5,22z"/>
	</g>
	<rect x="-0.3" y="1.6" class="st1" width="25.4" height="25.4"/>
</g>
</svg>
