<svg id="Layer_1" data-name="Layer 1" xmlns="http://www.w3.org/2000/svg" viewBox="0 0 25.93 25.39"><defs><style>.cls-1,.cls-2,.cls-3,.cls-4{fill:none;stroke:#0e7dff;}.cls-1,.cls-4{stroke-miterlimit:10;}.cls-2,.cls-3{stroke-linecap:round;stroke-linejoin:round;}.cls-3,.cls-4{stroke-width:0.5px;}</style></defs><title>cat_blue</title><g id="Layer_4" data-name="Layer 4"><path class="cls-1" d="M32.5,26.6c-3.5,2.9-8,3.4-10.5.9-2.7-2.7-1.9-7.8,1.8-11.4s8.8-4.5,11.4-1.8c2.2,2.2,2,5.9,0,9.2" transform="translate(-11.97 -12.23)"/><path class="cls-2" d="M25.8,29.1c-5.2-.4-7.7,2.3-7.7,2.3s2.7-2.5,2.3-7.7" transform="translate(-11.97 -12.23)"/><path class="cls-2" d="M12.7,36.2l0.7,0.7a0.67,0.67,0,0,0,1,0L18.3,33a0.67,0.67,0,0,0,0-1l-0.7-.7a0.67,0.67,0,0,0-1,0l-3.9,3.9A0.67,0.67,0,0,0,12.7,36.2Z" transform="translate(-11.97 -12.23)"/><path class="cls-3" d="M24,19.5a7.46,7.46,0,0,1,1.4-1.7,7.78,7.78,0,0,1,6-2.5" transform="translate(-11.97 -12.23)"/><path class="cls-3" d="M30.9,25a8.09,8.09,0,0,1-4.5,1.8" transform="translate(-11.97 -12.23)"/><line class="cls-3" x1="13.93" y1="7.37" x2="18.03" y2="11.47"/><line class="cls-3" x1="15.63" y1="5.67" x2="19.73" y2="9.77"/><line class="cls-3" x1="15.43" y1="11.67" x2="19.53" y2="7.57"/><line class="cls-3" x1="13.73" y1="9.87" x2="17.82" y2="5.77"/><path class="cls-4" d="M36.8,28.1a2.56,2.56,0,0,1-.8-1.9,2.87,2.87,0,0,1,.7-1.8" transform="translate(-11.97 -12.23)"/><path class="cls-4" d="M33.3,24.4a2.5,2.5,0,0,1,.8,1.8,2.34,2.34,0,0,1-.8,1.8" transform="translate(-11.97 -12.23)"/><circle class="cls-1" cx="23.03" cy="13.97" r="2.4"/></g></svg>