<?xml version="1.0" encoding="utf-8"?>
<!-- Generator: Adobe Illustrator 19.0.0, SVG Export Plug-In . SVG Version: 6.00 Build 0)  -->
<svg version="1.1" id="Layer_1" xmlns="http://www.w3.org/2000/svg" xmlns:xlink="http://www.w3.org/1999/xlink" x="0px" y="0px"
	 viewBox="0 1.6 25.9 25.4" style="enable-background:new 0 1.6 25.9 25.4;" xml:space="preserve">
<style type="text/css">
	.st0{display:none;opacity:0.22;fill:#001E33;enable-background:new    ;}
	.st1{display:none;}
	.st2{display:inline;fill:#1071FF;}
	.st3{fill:#FFFFFF;}
</style>
<title>cat_blue</title>
<g id="Layer_2">
	<rect x="-0.3" y="1.6" class="st0" width="25.4" height="25.4"/>
</g>
<g id="Layer_2_1_">
	<g class="st1">
		
			<rect x="10.9" y="17.6" transform="matrix(-0.7071 0.7071 -0.7071 -0.7071 41.3013 19.1687)" class="st2" width="11.5" height="1"/>
		<path class="st2" d="M23.9,11.7l-0.7-0.7c1.8-1.8,1.8-4.5,0.1-6.2L22.6,4c-0.8-0.8-1.9-1.2-3.1-1.2c-1.2,0-2.3,0.5-3.2,1.4
			l-0.7-0.7c1-1,2.4-1.6,3.9-1.7c1.5,0,2.8,0.5,3.8,1.5L24.1,4C26.1,6,26.1,9.5,23.9,11.7z"/>
		
			<rect x="3.4" y="10.1" transform="matrix(-0.7071 0.7071 -0.7071 -0.7071 23.0957 11.6409)" class="st2" width="11.5" height="1"/>
		<path class="st2" d="M6.4,26.9c-1.4,0-2.7-0.5-3.7-1.5l-0.7-0.7c-1-1-1.6-2.4-1.5-3.8c0-1.5,0.6-2.8,1.7-3.9l0.7,0.7
			c-0.9,0.9-1.3,2-1.4,3.2c0,1.2,0.4,2.3,1.2,3.1l0.7,0.7c0.8,0.8,1.9,1.2,3.1,1.2c1.2,0,2.3-0.5,3.2-1.4l0.7,0.7
			c-1,1-2.4,1.6-3.9,1.7C6.4,26.9,6.4,26.9,6.4,26.9z"/>
		<path class="st2" d="M21.6,14.9c-0.4,0-0.8-0.2-1.1-0.4l-0.2-0.2c-0.6-0.6-0.6-1.6,0-2.2l1.1-1.1c0.6-0.6,1.6-0.6,2.2,0l0.2,0.2
			c0.3,0.3,0.5,0.7,0.4,1.1c0,0.4-0.2,0.8-0.5,1.1l-1.1,1.1C22.4,14.8,22,14.9,21.6,14.9C21.6,14.9,21.6,14.9,21.6,14.9z M22.6,11.6
			c-0.1,0-0.3,0.1-0.4,0.2l-1.1,1.1c-0.2,0.2-0.2,0.5,0,0.7l0.2,0.2c0.1,0.1,0.2,0.1,0.4,0.1c0.1,0,0.3-0.1,0.4-0.2l1.1-1.1
			c0.1-0.1,0.2-0.2,0.2-0.4c0-0.1-0.1-0.3-0.1-0.4l0,0l-0.2-0.2C22.8,11.7,22.7,11.6,22.6,11.6z"/>
		<rect x="17.9" y="4.9" transform="matrix(-0.7071 0.7071 -0.7071 -0.7071 37.8044 2.5411)" class="st2" width="1" height="8.3"/>
		<rect x="7.2" y="15.6" transform="matrix(-0.7071 0.7071 -0.7071 -0.7071 27.0969 28.3446)" class="st2" width="1" height="8.3"/>
		<path class="st2" d="M18.5,10.3c-0.4,0-0.7-0.1-0.9-0.4c-0.3-0.3-0.4-0.6-0.4-1c0-0.4,0.2-0.7,0.4-1l0.7,0.7
			c-0.1,0.1-0.1,0.2-0.1,0.2c0,0.1,0,0.1,0.1,0.2c0.1,0.1,0.2,0.1,0.2,0.1c0.1,0,0.2,0,0.2-0.1l0.7,0.7
			C19.2,10.2,18.8,10.3,18.5,10.3C18.5,10.3,18.5,10.3,18.5,10.3z"/>
		<path class="st2" d="M8.5,20.9l-0.7-0.7c0.1-0.1,0.1-0.3,0-0.5c-0.1-0.1-0.3-0.1-0.5,0l-0.7-0.7c0.5-0.5,1.4-0.6,1.9,0
			C9.1,19.5,9,20.3,8.5,20.9z"/>
		<path class="st2" d="M14,7.4c-0.4,0-0.8-0.2-1.1-0.4l-0.2-0.2c-0.3-0.3-0.5-0.7-0.4-1.1c0-0.4,0.2-0.8,0.5-1.1l1.1-1.1
			c0.6-0.6,1.6-0.6,2.2,0l0.2,0.2c0.3,0.3,0.5,0.7,0.4,1.1c0,0.4-0.2,0.8-0.5,1.1l-1.1,1.1C14.8,7.2,14.4,7.4,14,7.4
			C14,7.4,14,7.4,14,7.4z M15,4.1c-0.1,0-0.3,0.1-0.4,0.2l-1.1,1.1c-0.1,0.1-0.2,0.2-0.2,0.4c0,0.1,0.1,0.3,0.1,0.4l0,0l0.2,0.2
			c0.1,0.1,0.2,0.1,0.4,0.1s0.3-0.1,0.4-0.2l1.1-1.1c0.1-0.1,0.2-0.2,0.2-0.4c0-0.1-0.1-0.3-0.1-0.4l-0.2-0.2
			C15.3,4.1,15.1,4.1,15,4.1z"/>
		<path class="st2" d="M3.3,18.1c-0.4,0-0.8-0.2-1.1-0.4l-0.2-0.2c-0.6-0.6-0.6-1.6,0-2.2l1.1-1.1c0.3-0.3,0.7-0.5,1.1-0.5
			c0.4,0,0.8,0.2,1.1,0.4l0.2,0.2C5.8,14.6,6,15.1,6,15.5c0,0.4-0.2,0.8-0.5,1.1l-1.1,1.1C4.1,18,3.7,18.1,3.3,18.1z M4.3,14.8
			C4.3,14.8,4.3,14.8,4.3,14.8c-0.2,0-0.3,0.1-0.4,0.2l-1.1,1.1c-0.2,0.2-0.2,0.5,0,0.7L3,16.9c0.2,0.2,0.5,0.2,0.7,0l1.1-1.1
			c0.1-0.1,0.2-0.2,0.2-0.4c0-0.1-0.1-0.3-0.1-0.4l-0.2-0.2C4.5,14.9,4.4,14.8,4.3,14.8z"/>
		<path class="st2" d="M10.9,25.7c-0.4,0-0.8-0.2-1.1-0.5l-0.1-0.1c-0.3-0.3-0.5-0.7-0.5-1.1s0.2-0.8,0.5-1.1l1.1-1.1
			c0.3-0.3,0.7-0.5,1.1-0.5s0.8,0.2,1.1,0.5l0.1,0.1c0.6,0.6,0.6,1.6,0,2.2L12,25.2C11.7,25.5,11.3,25.7,10.9,25.7z M11.8,22.4
			c-0.1,0-0.3,0.1-0.4,0.2l-1.1,1.1c-0.1,0.1-0.2,0.2-0.2,0.4c0,0.1,0.1,0.3,0.2,0.4l0.1,0.1c0.2,0.2,0.5,0.2,0.7,0l1.1-1.1
			c0.1-0.1,0.2-0.2,0.2-0.4c0-0.1-0.1-0.3-0.2-0.4l-0.1-0.1C12.1,22.4,12,22.4,11.8,22.4z"/>
	</g>
	<g>
		<g>
			<path class="st3" d="M2,26.8c-0.3,0-0.5-0.1-0.7-0.3l-0.6-0.6c-0.2-0.2-0.3-0.5-0.3-0.7c0-0.3,0.1-0.5,0.3-0.7l2.9-2.9
				c0.2-0.2,0.5-0.3,0.7-0.3s0.5,0.1,0.7,0.3l0.6,0.6c0.2,0.2,0.3,0.5,0.3,0.7s-0.1,0.5-0.3,0.7l-2.9,2.9C2.5,26.7,2.3,26.8,2,26.8z
				 M2,25.7L2,25.7L2,25.7z M1.4,25.2L2,25.7l2.8-2.8l-0.5-0.5L1.4,25.2z"/>
			<path class="st3" d="M17.6,12.3c-0.1,0-0.2,0-0.3-0.1l-2.5-2.5c-0.1-0.1-0.1-0.4,0-0.5c0.1-0.1,0.4-0.1,0.5,0l2.5,2.5
				c0.1,0.1,0.1,0.4,0,0.5C17.8,12.3,17.7,12.3,17.6,12.3z"/>
			<path class="st3" d="M18.7,11.3c-0.1,0-0.2,0-0.3-0.1l-2.5-2.5c-0.1-0.1-0.1-0.4,0-0.5s0.4-0.1,0.5,0l2.5,2.5
				c0.1,0.1,0.1,0.4,0,0.5C18.9,11.3,18.8,11.3,18.7,11.3z"/>
			<path class="st3" d="M15.4,13.2c-0.1,0-0.2,0-0.3-0.1c-0.1-0.1-0.1-0.4,0-0.5l4.1-4.1c0.1-0.1,0.4-0.1,0.5,0s0.1,0.4,0,0.5
				L15.6,13C15.6,13.1,15.5,13.2,15.4,13.2z"/>
			<path class="st3" d="M14.3,12.1c-0.1,0-0.2,0-0.3-0.1c-0.1-0.1-0.1-0.4,0-0.5l4.1-4.1c0.1-0.1,0.4-0.1,0.5,0
				c0.1,0.1,0.1,0.4,0,0.5L14.6,12C14.5,12.1,14.4,12.1,14.3,12.1z"/>
			<path class="st3" d="M13.2,18.4c-1.7,0-3-0.4-3.5-0.9l0,0c-0.6-0.6-0.9-2-0.9-3.6c0-1.7,0.5-6.1,4.3-9.7
				C18.4-1,23.2,3.8,23.3,3.9l0,0c0,0,4.3,4.2,0.7,9.1c-0.2,0.2-0.5,0.3-0.8,0.1c-0.2-0.2-0.3-0.5-0.1-0.8c3.1-4.2-0.4-7.6-0.6-7.8
				l0,0c-0.2-0.2-4.1-4.1-8.7,0.2c-3.5,3.4-4,7.4-4,8.9c0,1.6,0.4,2.6,0.6,2.9l0,0c0.7,0.7,5.3,1.3,9.6-1.5c0.3-0.2,0.6-0.1,0.7,0.2
				c0.2,0.3,0.1,0.6-0.2,0.7C18.1,17.7,15.4,18.4,13.2,18.4z"/>
			<path class="st3" d="M5.2,22.4c-0.1,0-0.3-0.1-0.4-0.2c-0.2-0.2-0.2-0.6,0-0.8l2.6-2.6c0.2-0.2,1.1-1.7,1.3-5.8
				c0-0.3,0.3-0.5,0.6-0.5c0.3,0,0.5,0.3,0.5,0.6c-0.2,4.4-1.3,6.1-1.5,6.4c0,0-0.1,0.1-0.1,0.1l-2.6,2.6
				C5.5,22.4,5.4,22.4,5.2,22.4z M7.5,18.9L7.5,18.9L7.5,18.9z M7.5,18.9L7.5,18.9L7.5,18.9z"/>
			<path class="st3" d="M5.2,22.4c-0.1,0-0.3-0.1-0.4-0.2c-0.2-0.2-0.2-0.6,0-0.8l2.6-2.6c0,0,0.1-0.1,0.1-0.1
				c0.3-0.2,1.9-1.2,6.3-1.5c0.3,0,0.6,0.2,0.6,0.5s-0.2,0.6-0.5,0.6c-4.1,0.3-5.6,1.2-5.8,1.3l-2.6,2.6C5.5,22.4,5.4,22.4,5.2,22.4
				z M8.3,19.6L8.3,19.6L8.3,19.6z"/>
			<path class="st3" d="M13,7.7c-0.1,0-0.2,0-0.2-0.1c-0.2-0.1-0.2-0.3-0.1-0.5c0.4-0.5,0.9-1,1.3-1.5c2.6-2.5,4.9-2.1,6.4-1.5
				c0.2,0.1,0.3,0.3,0.2,0.5c-0.1,0.2-0.3,0.3-0.5,0.2c-1.3-0.6-3.3-0.9-5.6,1.3c-0.5,0.4-0.9,0.9-1.3,1.4C13.2,7.7,13.1,7.7,13,7.7
				z"/>
			<path class="st3" d="M13.4,16.7c-0.6,0-1.1-0.1-1.5-0.2c-0.2-0.1-0.3-0.3-0.3-0.4c0.1-0.2,0.3-0.3,0.4-0.3
				c0.9,0.3,2.8,0.3,4.9-0.6c0.2-0.1,0.4,0,0.5,0.2c0.1,0.2,0,0.4-0.2,0.5C15.8,16.5,14.5,16.7,13.4,16.7z"/>
		</g>
		<path class="st3" d="M22.6,17.8c-1.6,0-2.9-1.3-2.9-2.9c0-1.6,1.3-2.9,2.9-2.9c1.6,0,2.9,1.3,2.9,2.9
			C25.5,16.5,24.2,17.8,22.6,17.8z M22.6,13c-1,0-1.8,0.8-1.8,1.8s0.8,1.8,1.8,1.8s1.8-0.8,1.8-1.8S23.7,13,22.6,13z"/>
		<g>
			<circle class="st3" cx="22.1" cy="14.3" r="0.5"/>
			<path class="st3" d="M22.1,15c-0.4,0-0.6-0.3-0.6-0.6s0.3-0.6,0.6-0.6s0.6,0.3,0.6,0.6S22.5,15,22.1,15z M22.1,14
				c-0.2,0-0.3,0.1-0.3,0.3s0.1,0.3,0.3,0.3c0.2,0,0.3-0.1,0.3-0.3C22.4,14.2,22.3,14,22.1,14z"/>
		</g>
		<g>
			<circle class="st3" cx="23.2" cy="15.4" r="0.5"/>
			<path class="st3" d="M23.2,16c-0.4,0-0.6-0.3-0.6-0.6s0.3-0.6,0.6-0.6s0.6,0.3,0.6,0.6S23.5,16,23.2,16z M23.2,15.1
				c-0.2,0-0.3,0.1-0.3,0.3c0,0.2,0.1,0.3,0.3,0.3c0.2,0,0.3-0.1,0.3-0.3C23.5,15.3,23.4,15.1,23.2,15.1z"/>
		</g>
	</g>
</g>
</svg>
