<?xml version="1.0" encoding="utf-8"?>
<svg xmlns="http://www.w3.org/2000/svg"
	xmlns:xlink="http://www.w3.org/1999/xlink"
	width="13px" height="7px" viewBox="0 0 13 7">
<path fillRule="evenodd" d="M 0.27 0.26C-0.09 0.6-0.09 1.15 0.27 1.49 0.27 1.49 5.84 6.74 5.84 6.74 6.21 7.09 6.79 7.09 7.16 6.74 7.16 6.74 12.73 1.49 12.73 1.49 12.91 1.32 13 1.1 13 0.87 13 0.65 12.91 0.43 12.73 0.26 12.37-0.09 11.78-0.09 11.41 0.26 11.41 0.26 6.5 4.89 6.5 4.89 6.5 4.89 1.59 0.26 1.59 0.26 1.22-0.09 0.63-0.09 0.27 0.26Z" fill="rgb(255,255,255)"/></svg>