<svg xmlns="http://www.w3.org/2000/svg" xmlns:xlink="http://www.w3.org/1999/xlink" width="12px" height="21px" viewBox="0 0 12 21"><path fillRule="evenodd" d="M 1.41-0.01C 1.78-0.01 2.14 0.13 2.42 0.4 2.42 0.4 11.59 9.49 11.59 9.49 12.14 10.04 12.14 10.93 11.59 11.48 11.59 11.48 2.42 20.57 2.42 20.57 1.86 21.12 0.97 21.12 0.41 20.57-0.14 20.02-0.14 19.13 0.41 18.58 0.41 18.58 8.57 10.49 8.57 10.49 8.57 10.49 0.41 2.4 0.41 2.4-0.14 1.85-0.14 0.95 0.41 0.4 0.69 0.13 1.05-0.01 1.41-0.01Z" fill="#fff"/></svg>