<svg xmlns="http://www.w3.org/2000/svg" width="87" height="526" viewBox="0 0 87 526">
  <defs>
    <style>
      .cls-1 {
        fill: #f1f4fe;
        fill-rule: evenodd;
      }
    </style>
  </defs>
  <path id="barcode_" data-name="barcode " class="cls-1" d="M5141,2055.94v-3.83h87v3.83h-87Zm0-11.11V2041h87v3.83h-87Zm0,32.28v-12.84h87v12.84h-87Zm0,17.19v-8.33h87v8.33h-87Zm0,39.41v-3.83h87v3.83h-87Zm0-22.22v-3.83h87v3.83h-87Zm0,60.58v-8.33h87v8.33h-87Zm0-22.22v-8.33h87v8.33h-87Zm0,33.85v-3.82h87v3.82h-87Zm0,27.25v-8.33h87v8.33h-87Zm0,39.41v-3.82h87v3.82h-87Zm0-22.22v-3.82h87v3.82h-87Zm0,48.42v-17.34h87v17.34h-87Zm0,34.91v-3.83h87v3.83h-87Zm0-11.11v-3.83h87v3.83h-87Zm0-11.11v-3.83h87v3.83h-87Zm0,43.39V2319.8h87v12.84h-87Zm0,84.37v-3.82h87v3.82h-87Zm0-16.66v-3.83h87v3.83h-87Zm0-27.78v-3.83h87v3.83h-87Zm0-11.11v-3.82h87v3.82h-87Zm0-16.66v-3.83h87v3.83h-87Zm0,104.49v-12.83h87v12.83h-87Zm0,17.72v-3.83h87v3.83h-87Zm0,71.69v-8.33h87v8.33h-87Zm0-16.67v-8.33h87v8.33h-87Zm0-16.66v-8.33h87v8.33h-87Zm0-22.22v-8.33h87v8.33h-87Zm0,83.85v-3.83h87V2567h-87Zm0-11.11v-3.83h87v3.83h-87Z" transform="translate(-5141 -2041)"/>
</svg>
