<svg xmlns="http://www.w3.org/2000/svg" width="396.56" height="487.19" viewBox="0 0 396.56 487.19">
  <defs>
    <style>
      .cls-1 {
        fill: #f1f4fe;
        fill-rule: evenodd;
        opacity: 0.5;
      }
    </style>
  </defs>
  <path class="cls-1" d="M2605,2278l-64.81-38.39a71.584,71.584,0,0,0-71.63-.02l-210.41,121.45a72.406,72.406,0,0,0-36.15,62.65v239.49c0,25.85,33,54.01,33,54.01h363.57V2687s-3.05-8.85-33.97-12.37a70.406,70.406,0,0,0-44.98,9.69h0a71.5,71.5,0,0,1-70.84.07l-69.31-39.5a72.308,72.308,0,0,1-36.47-62.86V2504.5a72.453,72.453,0,0,1,36.29-62.66l69.36-39.98a71.448,71.448,0,0,1,71.57.1L2605,2436a141.3,141.3,0,0,1,13.57,10V2288m-95.98,374.2h0l-16.77-67.65c-2.25-9.08,6.28-17.56,17.66-17.56h14.77c13.55,0,22.25-11.72,15.94-21.48l-69.9-108.08c-6.04-9.34-21.87-10.58-29.99-2.35h0c-4.49,4.54-5.24,10.82-1.91,15.98l41.86,64.96c6.29,9.77-2.41,21.47-15.95,21.47h-9.23c-14.04,0-22.68,12.49-15.4,22.26Z" transform="translate(-2222 -2230)"/>
</svg>
