
<svg xmlns="http://www.w3.org/2000/svg"	xmlns:xlink="http://www.w3.org/1999/xlink" width="95px" height="103px" viewBox="0 0 95 103"><path fillRule="evenodd" d="M 47.5 102.99C 43.64 102.99 39.77 102 36.32 100 36.32 100 11.18 85.45 11.18 85.45 4.28 81.46-0 74.02-0 66.04-0 66.04-0 36.94-0 36.94-0 28.96 4.28 21.52 11.18 17.53 11.18 17.53 36.32 2.98 36.32 2.98 43.22-1.02 51.78-1.02 58.68 2.98 58.68 2.98 83.83 17.53 83.83 17.53 90.72 21.52 95 28.96 95 36.94 95 36.94 95 66.04 95 66.04 95 74.02 90.72 81.46 83.83 85.45 83.83 85.45 58.68 100 58.68 100 55.23 102 51.36 102.99 47.5 102.99ZM 47.5 2.96C 44.15 2.96 40.8 3.83 37.81 5.56 37.81 5.56 12.66 20.11 12.66 20.11 6.69 23.57 2.98 30.02 2.98 36.94 2.98 36.94 2.98 66.04 2.98 66.04 2.98 72.96 6.69 79.41 12.66 82.87 12.66 82.87 37.81 97.42 37.81 97.42 43.79 100.88 51.21 100.88 57.19 97.42 57.19 97.42 82.34 82.87 82.34 82.87 88.31 79.41 92.02 72.96 92.02 66.04 92.02 66.04 92.02 36.94 92.02 36.94 92.02 30.02 88.31 23.57 82.34 20.11 82.34 20.11 57.19 5.56 57.19 5.56 54.2 3.83 50.85 2.96 47.5 2.96Z" fill="rgb(13,125,255)"/></svg>