<?xml version="1.0" encoding="utf-8"?>
<svg xmlns="http://www.w3.org/2000/svg"
	xmlns:xlink="http://www.w3.org/1999/xlink"
	width="11px" height="22px" viewBox="0 0 11 22">
<path fillRule="evenodd" d="M 8.86 3.66C 8.86 3.66 11 3.66 11 3.66 11 3.66 11-0 11-0 11-0 6.53-0 6.53-0 4.28-0 2.45 1.93 2.45 4.32 2.45 4.32 2.45 6.47 2.45 6.47 2.45 6.47 0 6.47 0 6.47 0 6.47 0 10.42 0 10.42 0 10.42 2.45 10.42 2.45 10.42 2.45 10.42 2.45 22 2.45 22 2.45 22 7.33 22 7.33 22 7.33 22 7.33 10.42 7.33 10.42 7.33 10.42 11 10.42 11 10.42 11 10.42 11 6.47 11 6.47 11 6.47 7.33 6.47 7.33 6.47 7.33 6.47 7.33 5.28 7.33 5.28 7.33 4.39 8.02 3.66 8.86 3.66Z" fill="rgb(255,255,255)"/></svg>