<?xml version="1.0" encoding="utf-8"?>
<svg xmlns="http://www.w3.org/2000/svg"
	xmlns:xlink="http://www.w3.org/1999/xlink"
	width="95px" height="103px" viewBox="0 0 95 103">
<path fillRule="evenodd" d="M 36.73 100.09C 36.73 100.09 10.77 85.11 10.77 85.11 4.1 81.27-0 74.16-0 66.47-0 66.47-0 36.51-0 36.51-0 28.82 4.1 21.71 10.77 17.86 10.77 17.86 36.73 2.89 36.73 2.89 43.39-0.96 51.6-0.96 58.27 2.89 58.27 2.89 84.23 17.86 84.23 17.86 90.89 21.71 95 28.82 95 36.51 95 36.51 95 66.47 95 66.47 95 74.16 90.89 81.27 84.23 85.11 84.23 85.11 58.27 100.09 58.27 100.09 51.6 103.94 43.39 103.94 36.73 100.09Z" fill="#fff"/></svg>