<?xml version="1.0" encoding="utf-8"?>
<svg xmlns="http://www.w3.org/2000/svg"
	xmlns:xlink="http://www.w3.org/1999/xlink"
	width="50px" height="55px" viewBox="0 0 50 55">
<path fillRule="evenodd" d="M 20.13 53.68C 20.13 53.68 4.86 44.82 4.86 44.82 1.85 43.07-0.01 39.84-0.01 36.34-0.01 36.34-0.01 18.63-0.01 18.63-0.01 15.13 1.85 11.9 4.86 10.15 4.86 10.15 20.13 1.29 20.13 1.29 23.14-0.46 26.86-0.46 29.87 1.29 29.87 1.29 45.13 10.15 45.13 10.15 48.15 11.9 50 15.13 50 18.63 50 18.63 50 36.34 50 36.34 50 39.84 48.15 43.07 45.13 44.82 45.13 44.82 29.87 53.68 29.87 53.68 26.86 55.43 23.14 55.43 20.13 53.68Z" fill="#0070f4"/></svg>


					