<svg xmlns="http://www.w3.org/2000/svg" width="28" height="28" viewBox="0 0 28 28">
  <defs>
    <style>
      .cls-1 {
        fill: #b7b7b7;
        fill-rule: evenodd;
      }
    </style>
  </defs>
  <path id="cALENDER_ICON" data-name="cALENDER ICON" class="cls-1" d="M4567.14,1149.57h-26.28a0.855,0.855,0,1,1,0-1.71h26.28A0.855,0.855,0,1,1,4567.14,1149.57Zm-12.57,13.72a0.866,0.866,0,0,1-.86-0.86v-6.05a0.859,0.859,0,0,1-.89-1.42l1.15-1.14a0.859,0.859,0,0,1,1.46.61v8A0.86,0.86,0,0,1,4554.57,1163.29Zm5.72,5.71h-17.72a2.569,2.569,0,0,1-2.57-2.57v-22.86a2.569,2.569,0,0,1,2.57-2.57h22.86a2.576,2.576,0,0,1,2.57,2.57v17.72a0.857,0.857,0,0,1-.25.6l-6.86,6.86A0.857,0.857,0,0,1,4560.29,1169Zm-17.72-26.29a0.866,0.866,0,0,0-.86.86v22.86a0.866,0.866,0,0,0,.86.86h17.36l6.35-6.36v-17.36a0.858,0.858,0,0,0-.85-0.86h-22.86Zm22.86,26.29h-5.14a0.855,0.855,0,1,1,0-1.71h5.14a0.858,0.858,0,0,0,.85-0.86v-5.14a0.86,0.86,0,1,1,1.72,0v5.14A2.576,2.576,0,0,1,4565.43,1169Zm-5.14,0a0.854,0.854,0,0,1-.86-0.86V1163a2.569,2.569,0,0,1,2.57-2.57h5.14a0.855,0.855,0,1,1,0,1.71H4562a0.866,0.866,0,0,0-.86.86v5.14A0.851,0.851,0,0,1,4560.29,1169Zm-12.58-22a1.715,1.715,0,1,1,1.72-1.72A1.718,1.718,0,0,1,4547.71,1147Zm0-2.29a0.575,0.575,0,1,0,.58.57A0.576,0.576,0,0,0,4547.71,1144.71Zm12.58,2.29a1.715,1.715,0,1,1,1.71-1.72A1.72,1.72,0,0,1,4560.29,1147Zm0-2.29a0.575,0.575,0,1,0,.57.57A0.578,0.578,0,0,0,4560.29,1144.71Z" transform="translate(-4540 -1141)"/>
</svg>
