<svg xmlns="http://www.w3.org/2000/svg" width="28" height="28" viewBox="0 0 28 28">
  <defs>
    <style>
      .cls-1 {
        fill: #b7b7b7;
        fill-rule: evenodd;
      }
    </style>
  </defs>
  <path id="clock" class="cls-1" d="M4918,1169a14,14,0,1,1,14-14A14.015,14.015,0,0,1,4918,1169Zm0-25.84a11.84,11.84,0,1,0,11.85,11.84A11.86,11.86,0,0,0,4918,1143.16Zm6.46,12.92H4918a1.082,1.082,0,0,1-1.08-1.08v-8.61a1.08,1.08,0,1,1,2.16,0v7.53h5.38A1.08,1.08,0,0,1,4924.46,1156.08Z" transform="translate(-4904 -1141)"/>
</svg>
