<svg xmlns="http://www.w3.org/2000/svg" viewBox="0 0 18 28"><path d="M506.08,385a4,4,0,1,1,4-4A4,4,0,0,1,506.08,385Zm0-6a2,2,0,1,0,2,2A2,2,0,0,0,506.08,379Z" transform="translate(-497.08 -372)" style="fill:#0e7dff"/><path d="M506.08,400a1,1,0,0,1-.9-0.56L498,385a8.91,8.91,0,0,1-.92-4,9,9,0,0,1,18,0,8.91,8.91,0,0,1-.92,4L507,399.44A1,1,0,0,1,506.08,400Zm0-26a7,7,0,0,0-7,7,6.94,6.94,0,0,0,.72,3.09l6.28,12.66,6.29-12.67A7,7,0,0,0,506.08,374Z" transform="translate(-497.08 -372)" style="fill:#0e7dff"/></svg>