<svg xmlns="http://www.w3.org/2000/svg" viewBox="0 0 26.67 26.67"><rect x="1" y="1" width="24.67" height="24.67" rx="3.81" ry="3.81" style="fill:none;stroke:#21262d;stroke-linecap:round;stroke-linejoin:round;stroke-width:2px"/><path d="M618.92,381.67a0.78,0.78,0,0,1,.68-0.78,19,19,0,0,1,2.32-.14,5,5,0,0,1,3.4,1,3.26,3.26,0,0,1,1.06,2.54,3.57,3.57,0,0,1-.94,2.59,5,5,0,0,1-3.71,1.33,5.4,5.4,0,0,1-1.26-.11v4.08a0.78,0.78,0,0,1-.78.78h0a0.78,0.78,0,0,1-.78-0.78V381.67Zm1.57,5.17a5.26,5.26,0,0,0,1.3.13c1.89,0,3-.92,3-2.59S623.69,382,622,382l-0.76,0a0.78,0.78,0,0,0-.71.78v4Z" transform="translate(-609.32 -373.53)" style="fill:#666;stroke:#21262d;stroke-miterlimit:10"/></svg>