<svg xmlns="http://www.w3.org/2000/svg" viewBox="0 0 28.66 28.66"><path d="M553.3,389.36a1.45,1.45,0,0,0-2.06,0l-2.4,2.4c-0.95.95-4.2-.09-6.86-2.74s-3.69-5.91-2.74-6.85l2.4-2.4a1.45,1.45,0,0,0,0-2.06l-4.46-4.46a1.45,1.45,0,0,0-2.06,0l-2.57,2.57c-2.74,2.74.09,10,6.34,16.28s13.54,9.09,16.28,6.34l2.57-2.57a1.45,1.45,0,0,0,0-2.06l-4.46-4.46" transform="translate(-530.52 -371.83)" style="fill:none;stroke:#21262d;stroke-linecap:round;stroke-linejoin:round;stroke-width:2px"/><line x1="25.87" y1="25.42" x2="19.36" y2="18.91" style="fill:none;stroke:#21262d;stroke-linecap:round;stroke-linejoin:round;stroke-width:2px"/><line x1="9.76" y1="9.31" x2="3.25" y2="2.8" style="fill:none;stroke:#21262d;stroke-linecap:round;stroke-linejoin:round;stroke-width:2px"/></svg>