<?xml version="1.0" encoding="utf-8"?>
<!-- Generator: Adobe Illustrator 19.0.0, SVG Export Plug-In . SVG Version: 6.00 Build 0)  -->
<svg version="1.1" id="Layer_1" xmlns="http://www.w3.org/2000/svg" xmlns:xlink="http://www.w3.org/1999/xlink" x="0px" y="0px"
	 viewBox="39 -47 106 120" style="enable-background:new 39 -47 106 120;" xml:space="preserve">
<style type="text/css">
	.st0{fill-rule:evenodd;clip-rule:evenodd;fill:#F1F4FE;}
</style>
<path class="st0" d="M72-27.2c7.7-7.7,18.3-12.5,30.1-12.5s22.4,4.8,30.1,12.5c7.7,7.7,12.5,18.3,12.5,30.1
	c0,11.7-4.8,22.4-12.5,30.1c-23.7,23.7-49.3,1.2-72.4,24.3l0,0l-5.8,5.8c-3.3,3.3-8.7,3.3-12,0c-3.3-3.3-3.3-8.7,0-12l5.8-5.8
	C70.8,22.2,48.3-3.4,72-27.2L72-27.2z M120.1,20.9c4.6-4.6,7.5-11,7.5-18c0-7-2.9-13.4-7.5-18c-4.6-4.6-11-7.5-18-7.5
	s-13.4,2.9-18,7.5c-11.8,11.8-5.1,28.7-9.3,45.4C91.4,26.1,108.3,32.7,120.1,20.9z"/>
</svg>
