<?xml version="1.0" encoding="utf-8"?>
<!-- Generator: Adobe Illustrator 19.0.0, SVG Export Plug-In . SVG Version: 6.00 Build 0)  -->
<svg version="1.1" id="Layer_1" xmlns="http://www.w3.org/2000/svg" xmlns:xlink="http://www.w3.org/1999/xlink" x="0px" y="0px"
	 viewBox="50 -57 128 141" style="enable-background:new 50 -57 128 141;" xml:space="preserve">
<style type="text/css">
	.st0{fill-rule:evenodd;clip-rule:evenodd;fill:#0E7DFF;}
</style>
<path class="st0" d="M89.7-35.2c9.3-9.3,22.2-15.1,36.5-15.1s27.1,5.8,36.5,15.1c9.3,9.3,15.1,22.2,15.1,36.5
	c0,14.2-5.8,27.1-15.1,36.5c-28.8,28.8-59.8,1.5-87.7,29.4l0,0l-7,7c-4,4-10.6,4-14.6,0c-4-4-4-10.6,0-14.6l7.1-7.1
	C88.3,24.6,61-6.4,89.7-35.2L89.7-35.2z M148.1,23.2c5.6-5.6,9.1-13.3,9.1-21.9c0-8.5-3.5-16.3-9.1-21.9c-5.6-5.6-13.3-9.1-21.9-9.1
	s-16.3,3.5-21.9,9.1c-14.3,14.3-6.2,34.8-11.3,55C113.2,29.4,133.8,37.4,148.1,23.2z"/>
</svg>
