<svg id="Layer_1" data-name="Layer 1" xmlns="http://www.w3.org/2000/svg" viewBox="0 0 79.26 86.51"><defs><style>.cls-1{fill:#0e7dff;}.cls-2{fill:none;stroke:#fff;stroke-linecap:round;stroke-linejoin:round;stroke-width:2px;}</style></defs><title>modal-payment</title><path class="cls-1" d="M770,568.81l-23.44-13.53a16.19,16.19,0,0,1-8.1-14V514.19a16.19,16.19,0,0,1,8.1-14L770,486.63a16.19,16.19,0,0,1,16.19,0l23.44,13.53a16.19,16.19,0,0,1,8.1,14v27.07a16.19,16.19,0,0,1-8.1,14l-23.44,13.53A16.19,16.19,0,0,1,770,568.81Z" transform="translate(-738.45 -484.46)"/><g id="credit_card_front_back"><rect class="cls-2" x="17.38" y="37.49" width="39.56" height="28.02" rx="2.47" ry="2.47"/><rect class="cls-2" x="22.33" y="42.43" width="9.89" height="8.24" rx="1.65" ry="1.65"/><line class="cls-2" x1="22.33" y1="55.62" x2="27.27" y2="55.62"/><line class="cls-2" x1="30.57" y1="55.62" x2="35.51" y2="55.62"/><line class="cls-2" x1="38.81" y1="55.62" x2="43.75" y2="55.62"/><line class="cls-2" x1="47.05" y1="55.62" x2="51.99" y2="55.62"/><line class="cls-2" x1="22.33" y1="60.56" x2="35.51" y2="60.56"/><line class="cls-2" x1="27.27" y1="42.43" x2="27.27" y2="50.67"/><line class="cls-2" x1="27.27" y1="45.73" x2="22.33" y2="45.73"/><path class="cls-2" d="M798.27,526.81l1.36-1.36a2.41,2.41,0,0,0,0-3.4l-15.87-15.87a2.41,2.41,0,0,0-3.4,0l-13,12.48" transform="translate(-738.45 -484.46)"/><line class="cls-2" x1="47.26" y1="23.67" x2="36.33" y2="34.19"/><line class="cls-2" x1="52.21" y1="28.62" x2="46.22" y2="34.19"/></g></svg>