<svg id="Layer_1" data-name="Layer 1" xmlns="http://www.w3.org/2000/svg" viewBox="0 0 30.91 33.53"><defs><style>.cls-1{fill:#f26d7d;}.cls-2{fill:none;stroke:#fff;stroke-linecap:round;stroke-linejoin:round;stroke-width:2px;}</style></defs><title>modal-oops</title><path class="cls-1" d="M787.66,483.77l-8.45-4.88a7,7,0,0,1-3.5-6.07v-9.75a7,7,0,0,1,3.5-6.07l8.45-4.88a7,7,0,0,1,7,0l8.45,4.88a7,7,0,0,1,3.5,6.07v9.75a7,7,0,0,1-3.5,6.07l-8.45,4.88A7,7,0,0,1,787.66,483.77Z" transform="translate(-775.71 -451.19)"/><line class="cls-2" x1="10.29" y1="11.59" x2="20.62" y2="21.93"/><line class="cls-2" x1="10.29" y1="21.93" x2="20.62" y2="11.59"/></svg>