<svg id="Layer_1" data-name="Layer 1" xmlns="http://www.w3.org/2000/svg" viewBox="0 0 30.91 33.53"><defs><style>.cls-1{fill:#0e7dff;}.cls-2{fill:none;stroke:#fff;stroke-linecap:round;stroke-linejoin:round;stroke-width:2px;}</style></defs><title>modal-check</title><path class="cls-1" d="M867.58,455.94l-8.45-4.88a7,7,0,0,1-3.5-6.07v-9.75a7,7,0,0,1,3.5-6.07l8.45-4.88a7,7,0,0,1,7,0l8.45,4.88a7,7,0,0,1,3.5,6.07V445a7,7,0,0,1-3.5,6.07l-8.45,4.88A7,7,0,0,1,867.58,455.94Z" transform="translate(-855.63 -423.36)"/><line class="cls-2" x1="22.71" y1="11.93" x2="13.05" y2="21.58"/><line class="cls-2" x1="13.04" y1="21.6" x2="8.2" y2="16.76"/></svg>