<?xml version="1.0" encoding="utf-8"?>
<svg xmlns="http://www.w3.org/2000/svg"
	xmlns:xlink="http://www.w3.org/1999/xlink"
	width="50px" height="55px" viewBox="0 0 50 55">
<path fillRule="evenodd" d="M 29.87 1.32C 29.87 1.32 45.14 10.17 45.14 10.17 48.15 11.92 50.01 15.15 50.01 18.65 50.01 18.65 50.01 36.35 50.01 36.35 50.01 39.85 48.15 43.08 45.14 44.83 45.14 44.83 29.87 53.68 29.87 53.68 26.86 55.43 23.15 55.43 20.13 53.68 20.13 53.68 4.87 44.83 4.87 44.83 1.85 43.08-0 39.85-0 36.35-0 36.35-0 18.65-0 18.65-0 15.15 1.85 11.92 4.87 10.17 4.87 10.17 20.13 1.32 20.13 1.32 23.15-0.43 26.86-0.43 29.87 1.32Z" fill="rgb(13,125,255)"/><path fillRule="evenodd" d="M 22.42 16.99C 22.78 16.99 23.14 17.13 23.42 17.4 23.42 17.4 32.58 26.49 32.58 26.49 33.14 27.04 33.14 27.93 32.58 28.48 32.58 28.48 23.42 37.57 23.42 37.57 22.86 38.12 21.97 38.12 21.41 37.57 20.86 37.02 20.86 36.13 21.41 35.58 21.41 35.58 29.57 27.49 29.57 27.49 29.57 27.49 21.41 19.4 21.41 19.4 20.86 18.85 20.86 17.95 21.41 17.4 21.69 17.13 22.05 16.99 22.42 16.99Z" fill="rgb(240,243,253)"/></svg>