<?xml version="1.0" encoding="utf-8"?>
<svg xmlns="http://www.w3.org/2000/svg"
	xmlns:xlink="http://www.w3.org/1999/xlink"
	width="122px" height="130px" viewBox="0 0 122 130">
<path fillRule="evenodd" d="M 47.16 126.35C 47.16 126.35 13.83 107.44 13.83 107.44 5.27 102.58-0 93.61-0 83.9-0 83.9-0 46.08-0 46.08-0 36.37 5.27 27.4 13.83 22.54 13.83 22.54 47.16 3.63 47.16 3.63 55.72-1.22 66.27-1.22 74.82 3.63 74.82 3.63 108.16 22.54 108.16 22.54 116.72 27.4 121.99 36.37 121.99 46.08 121.99 46.08 121.99 83.9 121.99 83.9 121.99 93.61 116.72 102.58 108.16 107.44 108.16 107.44 74.82 126.35 74.82 126.35 66.27 131.2 55.72 131.2 47.16 126.35Z" fill="rgb(241,243,253)"/></svg>