<?xml version="1.0" encoding="utf-8"?>
<svg xmlns="http://www.w3.org/2000/svg"
	xmlns:xlink="http://www.w3.org/1999/xlink"
	width="50px" height="55px" viewBox="0 0 50 55">
<path fillRule="evenodd" d="M 20.13 53.68C 20.13 53.68 4.86 44.82 4.86 44.82 1.85 43.07-0.01 39.84-0.01 36.34-0.01 36.34-0.01 18.63-0.01 18.63-0.01 15.13 1.85 11.9 4.86 10.15 4.86 10.15 20.13 1.29 20.13 1.29 23.14-0.46 26.85-0.46 29.87 1.29 29.87 1.29 45.13 10.15 45.13 10.15 48.15 11.9 50.01 15.13 50.01 18.63 50.01 18.63 50.01 36.34 50.01 36.34 50.01 39.84 48.15 43.07 45.13 44.82 45.13 44.82 29.87 53.68 29.87 53.68 26.85 55.43 23.14 55.43 20.13 53.68Z" fill="rgb(33,37,45)"/><path fillRule="evenodd" d="M 27.59 38C 27.22 38 26.86 37.86 26.58 37.59 26.58 37.59 17.42 28.49 17.42 28.49 16.86 27.94 16.86 27.05 17.42 26.5 17.42 26.5 26.58 17.41 26.58 17.41 27.14 16.86 28.04 16.86 28.59 17.41 29.15 17.96 29.15 18.85 28.59 19.4 28.59 19.4 20.43 27.5 20.43 27.5 20.43 27.5 28.59 35.59 28.59 35.59 29.15 36.14 29.15 37.04 28.59 37.59 28.31 37.86 27.95 38 27.59 38Z" fill="rgb(240,243,253)"/></svg>