<?xml version="1.0" encoding="utf-8"?>
<svg xmlns="http://www.w3.org/2000/svg"
	xmlns:xlink="http://www.w3.org/1999/xlink"
	width="24px" height="20px" viewBox="0 0 24 20">
<path fillRule="evenodd" d="M 24 2.37C 23.12 2.77 22.17 3.04 21.17 3.16 22.19 2.54 22.97 1.55 23.34 0.37 22.38 0.95 21.33 1.37 20.21 1.59 19.31 0.61 18.03-0 16.61-0 13.89-0 11.69 2.26 11.69 5.05 11.69 5.44 11.73 5.83 11.82 6.2 7.73 5.99 4.1 3.98 1.67 0.92 1.25 1.67 1 2.54 1 3.46 1 5.21 1.87 6.76 3.19 7.66 2.39 7.64 1.63 7.41 0.96 7.03 0.96 7.03 0.96 7.1 0.96 7.1 0.96 9.54 2.66 11.58 4.91 12.05 4.5 12.16 4.06 12.22 3.62 12.22 3.3 12.22 2.99 12.19 2.69 12.14 3.32 14.14 5.13 15.6 7.29 15.64 5.6 16.99 3.48 17.8 1.17 17.8 0.77 17.8 0.38 17.78-0 17.73 2.18 19.16 4.76 20 7.55 20 16.6 20 21.56 12.31 21.56 5.63 21.56 5.42 21.55 5.2 21.54 4.98 22.5 4.27 23.34 3.38 24 2.37Z" fill="rgb(148,148,148)"/></svg>